<svg width="1885" height="1883" viewBox="0 0 1885 1883" fill="none" xmlns="http://www.w3.org/2000/svg">
<path d="M94.2637 1266.24H618.692L762.709 1260.57C1138.3 1228.11 1267.35 1051.85 1268.08 617.38C1268.59 310.153 1268.45 161.597 1268.28 93.8824C1268.21 65.349 1245.08 42.4604 1216.55 42.4604H670.692C641.973 42.4604 618.692 65.7416 618.692 94.4604V565.38C618.692 594.099 595.411 617.38 566.692 617.38H94.2637C65.5449 617.38 42.2637 640.661 42.2637 669.38V1214.24C42.2637 1242.96 65.5449 1266.24 94.2637 1266.24Z" fill="#FF0A54" stroke="#FF0A54" stroke-width="84" stroke-linecap="round"/>
<path d="M618.026 1266.78C618.089 1573.13 618.073 1720.98 618.052 1788.61C618.044 1817.35 641.344 1840.62 670.087 1840.62H764.27H1215.35C1244.11 1840.62 1267.41 1817.28 1267.35 1788.53L1266.48 1318.88C1266.42 1290.12 1289.72 1266.78 1318.48 1266.78H1790.03C1818.74 1266.78 1842.03 1243.5 1842.03 1214.78V763.796V672.032C1842.03 642.715 1817.82 618.941 1788.51 619.173C1719.73 619.716 1570.81 620.134 1266.38 618.481C780.462 615.842 617.927 778.661 618.026 1266.78Z" fill="#FFC4D6" stroke="#FFC4D6" stroke-width="84" stroke-linecap="round"/>
<path d="M1310.08 617.45L1310.15 575.45L1226.15 575.31L1226.08 617.31L1310.08 617.45ZM1123.91 804.074C1147.03 802.114 1164.18 781.789 1162.22 758.676C1160.26 735.563 1139.93 718.415 1116.82 720.375L1123.91 804.074ZM1226.08 617.31C1225.73 820.98 1196.54 958.182 1133.39 1049.49C1071.87 1138.43 972.853 1191.04 813.529 1212.72L824.859 1295.96C997.688 1272.43 1122.76 1212.52 1202.48 1097.27C1280.56 984.381 1309.73 825.71 1310.08 617.45L1226.08 617.31ZM805.673 1205.27C811.387 1047.88 842.334 954.181 891.853 897.283C940.421 841.478 1013.66 813.425 1123.91 804.074L1116.82 720.375C997.103 730.527 897.842 762.45 828.489 842.137C760.087 920.732 727.689 1038.04 721.728 1202.22L805.673 1205.27ZM813.529 1212.72C809.535 1213.27 805.498 1210.08 805.673 1205.27L721.728 1202.22C719.691 1258.34 768.439 1303.64 824.859 1295.96L813.529 1212.72Z" fill="#FF0A54"/>
<path d="M722.27 1840.62V1882.62H806.27V1840.62H722.27ZM806.27 1408.87C806.27 1385.67 787.466 1366.87 764.27 1366.87C741.074 1366.87 722.27 1385.67 722.27 1408.87H806.27ZM764.27 1840.62C806.27 1840.62 806.27 1840.62 806.27 1840.62C806.27 1840.62 806.27 1840.62 806.27 1840.62C806.27 1840.62 806.27 1840.61 806.27 1840.61C806.27 1840.61 806.27 1840.61 806.27 1840.6C806.27 1840.6 806.27 1840.59 806.27 1840.59C806.27 1840.58 806.27 1840.58 806.27 1840.57C806.27 1840.57 806.27 1840.56 806.27 1840.56C806.27 1840.55 806.27 1840.54 806.27 1840.54C806.27 1840.53 806.27 1840.52 806.27 1840.51C806.27 1840.51 806.27 1840.5 806.27 1840.49C806.27 1840.48 806.27 1840.47 806.27 1840.46C806.27 1840.45 806.27 1840.44 806.27 1840.43C806.27 1840.42 806.27 1840.41 806.27 1840.39C806.27 1840.38 806.27 1840.37 806.27 1840.36C806.27 1840.34 806.27 1840.33 806.27 1840.32C806.27 1840.3 806.27 1840.29 806.27 1840.28C806.27 1840.26 806.27 1840.25 806.27 1840.23C806.27 1840.22 806.27 1840.2 806.27 1840.18C806.27 1840.17 806.27 1840.15 806.27 1840.13C806.27 1840.11 806.27 1840.1 806.27 1840.08C806.27 1840.06 806.27 1840.04 806.27 1840.02C806.27 1840 806.27 1839.98 806.27 1839.96C806.27 1839.94 806.27 1839.92 806.27 1839.9C806.27 1839.88 806.27 1839.86 806.27 1839.84C806.27 1839.82 806.27 1839.79 806.27 1839.77C806.27 1839.75 806.27 1839.72 806.27 1839.7C806.27 1839.68 806.27 1839.65 806.27 1839.63C806.27 1839.6 806.27 1839.58 806.27 1839.55C806.27 1839.53 806.27 1839.5 806.27 1839.47C806.27 1839.45 806.27 1839.42 806.27 1839.39C806.27 1839.37 806.27 1839.34 806.27 1839.31C806.27 1839.28 806.27 1839.25 806.27 1839.22C806.27 1839.19 806.27 1839.16 806.27 1839.13C806.27 1839.1 806.27 1839.07 806.27 1839.04C806.27 1839.01 806.27 1838.98 806.27 1838.95C806.27 1838.91 806.27 1838.88 806.27 1838.85C806.27 1838.82 806.27 1838.78 806.27 1838.75C806.27 1838.71 806.27 1838.68 806.27 1838.64C806.27 1838.61 806.27 1838.57 806.27 1838.54C806.27 1838.5 806.27 1838.46 806.27 1838.43C806.27 1838.39 806.27 1838.35 806.27 1838.32C806.27 1838.28 806.27 1838.24 806.27 1838.2C806.27 1838.16 806.27 1838.12 806.27 1838.08C806.27 1838.04 806.27 1838 806.27 1837.96C806.27 1837.92 806.27 1837.88 806.27 1837.84C806.27 1837.8 806.27 1837.76 806.27 1837.71C806.27 1837.67 806.27 1837.63 806.27 1837.58C806.27 1837.54 806.27 1837.5 806.27 1837.45C806.27 1837.41 806.27 1837.36 806.27 1837.32C806.27 1837.27 806.27 1837.23 806.27 1837.18C806.27 1837.13 806.27 1837.09 806.27 1837.04C806.27 1836.99 806.27 1836.94 806.27 1836.89C806.27 1836.85 806.27 1836.8 806.27 1836.75C806.27 1836.7 806.27 1836.65 806.27 1836.6C806.27 1836.55 806.27 1836.5 806.27 1836.45C806.27 1836.4 806.27 1836.34 806.27 1836.29C806.27 1836.24 806.27 1836.19 806.27 1836.13C806.27 1836.08 806.27 1836.03 806.27 1835.97C806.27 1835.92 806.27 1835.86 806.27 1835.81C806.27 1835.75 806.27 1835.7 806.27 1835.64C806.27 1835.59 806.27 1835.53 806.27 1835.47C806.27 1835.42 806.27 1835.36 806.27 1835.3C806.27 1835.24 806.27 1835.18 806.27 1835.12C806.27 1835.07 806.27 1835.01 806.27 1834.95C806.27 1834.89 806.27 1834.83 806.27 1834.77C806.27 1834.7 806.27 1834.64 806.27 1834.58C806.27 1834.52 806.27 1834.46 806.27 1834.39C806.27 1834.33 806.27 1834.27 806.27 1834.2C806.27 1834.14 806.27 1834.08 806.27 1834.01C806.27 1833.95 806.27 1833.88 806.27 1833.82C806.27 1833.75 806.27 1833.68 806.27 1833.62C806.27 1833.55 806.27 1833.48 806.27 1833.41C806.27 1833.35 806.27 1833.28 806.27 1833.21C806.27 1833.14 806.27 1833.07 806.27 1833C806.27 1832.93 806.27 1832.86 806.27 1832.79C806.27 1832.72 806.27 1832.65 806.27 1832.58C806.27 1832.51 806.27 1832.43 806.27 1832.36C806.27 1832.29 806.27 1832.22 806.27 1832.14C806.27 1832.07 806.27 1831.99 806.27 1831.92C806.27 1831.84 806.27 1831.77 806.27 1831.69C806.27 1831.62 806.27 1831.54 806.27 1831.47C806.27 1831.39 806.27 1831.31 806.27 1831.23C806.27 1831.16 806.27 1831.08 806.27 1831C806.27 1830.92 806.27 1830.84 806.27 1830.76C806.27 1830.68 806.27 1830.6 806.27 1830.52C806.27 1830.44 806.27 1830.36 806.27 1830.28C806.27 1830.2 806.27 1830.11 806.27 1830.03C806.27 1829.95 806.27 1829.87 806.27 1829.78C806.27 1829.7 806.27 1829.61 806.27 1829.53C806.27 1829.45 806.27 1829.36 806.27 1829.27C806.27 1829.19 806.27 1829.1 806.27 1829.02C806.27 1828.93 806.27 1828.84 806.27 1828.75C806.27 1828.67 806.27 1828.58 806.27 1828.49C806.27 1828.4 806.27 1828.31 806.27 1828.22C806.27 1828.13 806.27 1828.04 806.27 1827.95C806.27 1827.86 806.27 1827.77 806.27 1827.68C806.27 1827.59 806.27 1827.5 806.27 1827.4C806.27 1827.31 806.27 1827.22 806.27 1827.12C806.27 1827.03 806.27 1826.93 806.27 1826.84C806.27 1826.75 806.27 1826.65 806.27 1826.55C806.27 1826.46 806.27 1826.36 806.27 1826.27C806.27 1826.17 806.27 1826.07 806.27 1825.97C806.27 1825.88 806.27 1825.78 806.27 1825.68C806.27 1825.58 806.27 1825.48 806.27 1825.38C806.27 1825.28 806.27 1825.18 806.27 1825.08C806.27 1824.98 806.27 1824.88 806.27 1824.78C806.27 1824.67 806.27 1824.57 806.27 1824.47C806.27 1824.37 806.27 1824.26 806.27 1824.16C806.27 1824.06 806.27 1823.95 806.27 1823.85C806.27 1823.74 806.27 1823.64 806.27 1823.53C806.27 1823.42 806.27 1823.32 806.27 1823.21C806.27 1823.1 806.27 1823 806.27 1822.89C806.27 1822.78 806.27 1822.67 806.27 1822.56C806.27 1822.45 806.27 1822.34 806.27 1822.23C806.27 1822.12 806.27 1822.01 806.27 1821.9C806.27 1821.79 806.27 1821.68 806.27 1821.57C806.27 1821.45 806.27 1821.34 806.27 1821.23C806.27 1821.12 806.27 1821 806.27 1820.89C806.27 1820.77 806.27 1820.66 806.27 1820.54C806.27 1820.43 806.27 1820.31 806.27 1820.2C806.27 1820.08 806.27 1819.96 806.27 1819.85C806.27 1819.73 806.27 1819.61 806.27 1819.49C806.27 1819.37 806.27 1819.26 806.27 1819.14C806.27 1819.02 806.27 1818.9 806.27 1818.78C806.27 1818.66 806.27 1818.53 806.27 1818.41C806.27 1818.29 806.27 1818.17 806.27 1818.05C806.27 1817.92 806.27 1817.8 806.27 1817.68C806.27 1817.55 806.27 1817.43 806.27 1817.31C806.27 1817.18 806.27 1817.06 806.27 1816.93C806.27 1816.8 806.27 1816.68 806.27 1816.55C806.27 1816.42 806.27 1816.3 806.27 1816.17C806.27 1816.04 806.27 1815.91 806.27 1815.78C806.27 1815.66 806.27 1815.53 806.27 1815.4C806.27 1815.27 806.27 1815.14 806.27 1815.01C806.27 1814.87 806.27 1814.74 806.27 1814.61C806.27 1814.48 806.27 1814.35 806.27 1814.21C806.27 1814.08 806.27 1813.95 806.27 1813.81C806.27 1813.68 806.27 1813.54 806.27 1813.41C806.27 1813.27 806.27 1813.14 806.27 1813C806.27 1812.87 806.27 1812.73 806.27 1812.59C806.27 1812.45 806.27 1812.32 806.27 1812.18C806.27 1812.04 806.27 1811.9 806.27 1811.76C806.27 1811.62 806.27 1811.48 806.27 1811.34C806.27 1811.2 806.27 1811.06 806.27 1810.92C806.27 1810.78 806.27 1810.63 806.27 1810.49C806.27 1810.35 806.27 1810.21 806.27 1810.06C806.27 1809.92 806.27 1809.78 806.27 1809.63C806.27 1809.49 806.27 1809.34 806.27 1809.19C806.27 1809.05 806.27 1808.9 806.27 1808.76C806.27 1808.61 806.27 1808.46 806.27 1808.31C806.27 1808.17 806.27 1808.02 806.27 1807.87C806.27 1807.72 806.27 1807.57 806.27 1807.42C806.27 1807.27 806.27 1807.12 806.27 1806.97C806.27 1806.82 806.27 1806.66 806.27 1806.51C806.27 1806.36 806.27 1806.21 806.27 1806.05C806.27 1805.9 806.27 1805.75 806.27 1805.59C806.27 1805.44 806.27 1805.28 806.27 1805.13C806.27 1804.97 806.27 1804.81 806.27 1804.66C806.27 1804.5 806.27 1804.34 806.27 1804.19C806.27 1804.03 806.27 1803.87 806.27 1803.71C806.27 1803.55 806.27 1803.39 806.27 1803.23C806.27 1803.07 806.27 1802.91 806.27 1802.75C806.27 1802.59 806.27 1802.43 806.27 1802.27C806.27 1802.11 806.27 1801.94 806.27 1801.78C806.27 1801.62 806.27 1801.45 806.27 1801.29C806.27 1801.13 806.27 1800.96 806.27 1800.8C806.27 1800.63 806.27 1800.46 806.27 1800.3C806.27 1800.13 806.27 1799.96 806.27 1799.8C806.27 1799.63 806.27 1799.46 806.27 1799.29C806.27 1799.12 806.27 1798.96 806.27 1798.79C806.27 1798.62 806.27 1798.45 806.27 1798.27C806.27 1798.1 806.27 1797.93 806.27 1797.76C806.27 1797.59 806.27 1797.42 806.27 1797.24C806.27 1797.07 806.27 1796.9 806.27 1796.72C806.27 1796.55 806.27 1796.37 806.27 1796.2C806.27 1796.02 806.27 1795.85 806.27 1795.67C806.27 1795.5 806.27 1795.32 806.27 1795.14C806.27 1794.96 806.27 1794.79 806.27 1794.61C806.27 1794.43 806.27 1794.25 806.27 1794.07C806.27 1793.89 806.27 1793.71 806.27 1793.53C806.27 1793.35 806.27 1793.17 806.27 1792.99C806.27 1792.8 806.27 1792.62 806.27 1792.44C806.27 1792.26 806.27 1792.07 806.27 1791.89C806.27 1791.7 806.27 1791.52 806.27 1791.33C806.27 1791.15 806.27 1790.96 806.27 1790.78C806.27 1790.59 806.27 1790.4 806.27 1790.22C806.27 1790.03 806.27 1789.84 806.27 1789.65C806.27 1789.46 806.27 1789.28 806.27 1789.09C806.27 1788.9 806.27 1788.71 806.27 1788.52C806.27 1788.32 806.27 1788.13 806.27 1787.94C806.27 1787.75 806.27 1787.56 806.27 1787.36C806.27 1787.17 806.27 1786.98 806.27 1786.78C806.27 1786.59 806.27 1786.39 806.27 1786.2C806.27 1786 806.27 1785.81 806.27 1785.61C806.27 1785.42 806.27 1785.22 806.27 1785.02C806.27 1784.82 806.27 1784.63 806.27 1784.43C806.27 1784.23 806.27 1784.03 806.27 1783.83C806.27 1783.63 806.27 1783.43 806.27 1783.23C806.27 1783.03 806.27 1782.83 806.27 1782.62C806.27 1782.42 806.27 1782.22 806.27 1782.02C806.27 1781.81 806.27 1781.61 806.27 1781.41C806.27 1781.2 806.27 1781 806.27 1780.79C806.27 1780.59 806.27 1780.38 806.27 1780.17C806.27 1779.97 806.27 1779.76 806.27 1779.55C806.27 1779.34 806.27 1779.14 806.27 1778.93C806.27 1778.72 806.27 1778.51 806.27 1778.3C806.27 1778.09 806.27 1777.88 806.27 1777.67C806.27 1777.46 806.27 1777.25 806.27 1777.03C806.27 1776.82 806.27 1776.61 806.27 1776.39C806.27 1776.18 806.27 1775.97 806.27 1775.75C806.27 1775.54 806.27 1775.32 806.27 1775.11C806.27 1774.89 806.27 1774.68 806.27 1774.46C806.27 1774.24 806.27 1774.02 806.27 1773.81C806.27 1773.59 806.27 1773.37 806.27 1773.15C806.27 1772.93 806.27 1772.71 806.27 1772.49C806.27 1772.27 806.27 1772.05 806.27 1771.83C806.27 1771.61 806.27 1771.39 806.27 1771.16C806.27 1770.94 806.27 1770.72 806.27 1770.49C806.27 1770.27 806.27 1770.05 806.27 1769.82C806.27 1769.6 806.27 1769.37 806.27 1769.15C806.27 1768.92 806.27 1768.69 806.27 1768.47C806.27 1768.24 806.27 1768.01 806.27 1767.78C806.27 1767.55 806.27 1767.33 806.27 1767.1C806.27 1766.87 806.27 1766.64 806.27 1766.41C806.27 1766.18 806.27 1765.94 806.27 1765.71C806.27 1765.48 806.27 1765.25 806.27 1765.01C806.27 1764.78 806.27 1764.55 806.27 1764.31C806.27 1764.08 806.27 1763.85 806.27 1763.61C806.27 1763.37 806.27 1763.14 806.27 1762.9C806.27 1762.67 806.27 1762.43 806.27 1762.19C806.27 1761.95 806.27 1761.72 806.27 1761.48C806.27 1761.24 806.27 1761 806.27 1760.76C806.27 1760.52 806.27 1760.28 806.27 1760.04C806.27 1759.8 806.27 1759.55 806.27 1759.31C806.27 1759.07 806.27 1758.83 806.27 1758.58C806.27 1758.34 806.27 1758.1 806.27 1757.85C806.27 1757.61 806.27 1757.36 806.27 1757.12C806.27 1756.87 806.27 1756.62 806.27 1756.38C806.27 1756.13 806.27 1755.88 806.27 1755.63C806.27 1755.39 806.27 1755.14 806.27 1754.89C806.27 1754.64 806.27 1754.39 806.27 1754.14C806.27 1753.89 806.27 1753.64 806.27 1753.38C806.27 1753.13 806.27 1752.88 806.27 1752.63C806.27 1752.37 806.27 1752.12 806.27 1751.87C806.27 1751.61 806.27 1751.36 806.27 1751.1C806.27 1750.85 806.27 1750.59 806.27 1750.34C806.27 1750.08 806.27 1749.82 806.27 1749.56C806.27 1749.31 806.27 1749.05 806.27 1748.79C806.27 1748.53 806.27 1748.27 806.27 1748.01C806.27 1747.75 806.27 1747.49 806.27 1747.23C806.27 1746.97 806.27 1746.71 806.27 1746.44C806.27 1746.18 806.27 1745.92 806.27 1745.66C806.27 1745.39 806.27 1745.13 806.27 1744.86C806.27 1744.6 806.27 1744.33 806.27 1744.07C806.27 1743.8 806.27 1743.53 806.27 1743.27C806.27 1743 806.27 1742.73 806.27 1742.46C806.27 1742.2 806.27 1741.93 806.27 1741.66C806.27 1741.39 806.27 1741.12 806.27 1740.85C806.27 1740.58 806.27 1740.3 806.27 1740.03C806.27 1739.76 806.27 1739.49 806.27 1739.21C806.27 1738.94 806.27 1738.67 806.27 1738.39C806.27 1738.12 806.27 1737.84 806.27 1737.57C806.27 1737.29 806.27 1737.02 806.27 1736.74C806.27 1736.46 806.27 1736.19 806.27 1735.91C806.27 1735.63 806.27 1735.35 806.27 1735.07C806.27 1734.79 806.27 1734.51 806.27 1734.23C806.27 1733.95 806.27 1733.67 806.27 1733.39C806.27 1733.11 806.27 1732.83 806.27 1732.54C806.27 1732.26 806.27 1731.98 806.27 1731.69C806.27 1731.41 806.27 1731.12 806.27 1730.84C806.27 1730.55 806.27 1730.27 806.27 1729.98C806.27 1729.7 806.27 1729.41 806.27 1729.12C806.27 1728.83 806.27 1728.54 806.27 1728.26C806.27 1727.97 806.27 1727.68 806.27 1727.39C806.27 1727.1 806.27 1726.81 806.27 1726.51C806.27 1726.22 806.27 1725.93 806.27 1725.64C806.27 1725.35 806.27 1725.05 806.27 1724.76C806.27 1724.47 806.27 1724.17 806.27 1723.88C806.27 1723.58 806.27 1723.29 806.27 1722.99C806.27 1722.69 806.27 1722.4 806.27 1722.1C806.27 1721.8 806.27 1721.5 806.27 1721.21C806.27 1720.91 806.27 1720.61 806.27 1720.31C806.27 1720.01 806.27 1719.71 806.27 1719.41C806.27 1719.1 806.27 1718.8 806.27 1718.5C806.27 1718.2 806.27 1717.9 806.27 1717.59C806.27 1717.29 806.27 1716.98 806.27 1716.68C806.27 1716.37 806.27 1716.07 806.27 1715.76C806.27 1715.46 806.27 1715.15 806.27 1714.84C806.27 1714.54 806.27 1714.23 806.27 1713.92C806.27 1713.61 806.27 1713.3 806.27 1712.99C806.27 1712.68 806.27 1712.37 806.27 1712.06C806.27 1711.75 806.27 1711.44 806.27 1711.13C806.27 1710.81 806.27 1710.5 806.27 1710.19C806.27 1709.87 806.27 1709.56 806.27 1709.25C806.27 1708.93 806.27 1708.62 806.27 1708.3C806.27 1707.98 806.27 1707.67 806.27 1707.35C806.27 1707.03 806.27 1706.71 806.27 1706.4C806.27 1706.08 806.27 1705.76 806.27 1705.44C806.27 1705.12 806.27 1704.8 806.27 1704.48C806.27 1704.16 806.27 1703.84 806.27 1703.51C806.27 1703.19 806.27 1702.87 806.27 1702.54C806.27 1702.22 806.27 1701.9 806.27 1701.57C806.27 1701.25 806.27 1700.92 806.27 1700.6C806.27 1700.27 806.27 1699.94 806.27 1699.62C806.27 1699.29 806.27 1698.96 806.27 1698.63C806.27 1698.31 806.27 1697.98 806.27 1697.65C806.27 1697.32 806.27 1696.99 806.27 1696.66C806.27 1696.32 806.27 1695.99 806.27 1695.66C806.27 1695.33 806.27 1695 806.27 1694.66C806.27 1694.33 806.27 1693.99 806.27 1693.66C806.27 1693.33 806.27 1692.99 806.27 1692.65C806.27 1692.32 806.27 1691.98 806.27 1691.64C806.27 1691.31 806.27 1690.97 806.27 1690.63C806.27 1690.29 806.27 1689.95 806.27 1689.61C806.27 1689.27 806.27 1688.93 806.27 1688.59C806.27 1688.25 806.27 1687.91 806.27 1687.57C806.27 1687.22 806.27 1686.88 806.27 1686.54C806.27 1686.19 806.27 1685.85 806.27 1685.51C806.27 1685.16 806.27 1684.82 806.27 1684.47C806.27 1684.12 806.27 1683.78 806.27 1683.43C806.27 1683.08 806.27 1682.73 806.27 1682.38C806.27 1682.04 806.27 1681.69 806.27 1681.34C806.27 1680.99 806.27 1680.64 806.27 1680.29C806.27 1679.93 806.27 1679.58 806.27 1679.23C806.27 1678.88 806.27 1678.52 806.27 1678.17C806.27 1677.82 806.27 1677.46 806.27 1677.11C806.27 1676.75 806.27 1676.4 806.27 1676.04C806.27 1675.68 806.27 1675.33 806.27 1674.97C806.27 1674.61 806.27 1674.25 806.27 1673.89C806.27 1673.54 806.27 1673.18 806.27 1672.82C806.27 1672.46 806.27 1672.09 806.27 1671.73C806.27 1671.37 806.27 1671.01 806.27 1670.65C806.27 1670.28 806.27 1669.92 806.27 1669.56C806.27 1669.19 806.27 1668.83 806.27 1668.46C806.27 1668.1 806.27 1667.73 806.27 1667.37C806.27 1667 806.27 1666.63 806.27 1666.26C806.27 1665.9 806.27 1665.53 806.27 1665.16C806.27 1664.79 806.27 1664.42 806.27 1664.05C806.27 1663.68 806.27 1663.31 806.27 1662.94C806.27 1662.56 806.27 1662.19 806.27 1661.82C806.27 1661.44 806.27 1661.07 806.27 1660.7C806.27 1660.32 806.27 1659.95 806.27 1659.57C806.27 1659.2 806.27 1658.82 806.27 1658.44C806.27 1658.07 806.27 1657.69 806.27 1657.31C806.27 1656.93 806.27 1656.55 806.27 1656.17C806.27 1655.79 806.27 1655.41 806.27 1655.03C806.27 1654.65 806.27 1654.27 806.27 1653.89C806.27 1653.51 806.27 1653.12 806.27 1652.74C806.27 1652.36 806.27 1651.97 806.27 1651.59C806.27 1651.2 806.27 1650.82 806.27 1650.43C806.27 1650.04 806.27 1649.66 806.27 1649.27C806.27 1648.88 806.27 1648.5 806.27 1648.11C806.27 1647.72 806.27 1647.33 806.27 1646.94C806.27 1646.55 806.27 1646.16 806.27 1645.77C806.27 1645.38 806.27 1644.98 806.27 1644.59C806.27 1644.2 806.27 1643.8 806.27 1643.41C806.27 1643.02 806.27 1642.62 806.27 1642.23C806.27 1641.83 806.27 1641.44 806.27 1641.04C806.27 1640.64 806.27 1640.25 806.27 1639.85C806.27 1639.45 806.27 1639.05 806.27 1638.65C806.27 1638.25 806.27 1637.85 806.27 1637.45C806.27 1637.05 806.27 1636.65 806.27 1636.25C806.27 1635.85 806.27 1635.44 806.27 1635.04C806.27 1634.64 806.27 1634.23 806.27 1633.83C806.27 1633.43 806.27 1633.02 806.27 1632.61C806.27 1632.21 806.27 1631.8 806.27 1631.4C806.27 1630.99 806.27 1630.58 806.27 1630.17C806.27 1629.76 806.27 1629.35 806.27 1628.94C806.27 1628.53 806.27 1628.12 806.27 1627.71C806.27 1627.3 806.27 1626.89 806.27 1626.48C806.27 1626.07 806.27 1625.65 806.27 1625.24C806.27 1624.82 806.27 1624.41 806.27 1624C806.27 1623.58 806.27 1623.16 806.27 1622.75C806.27 1622.33 806.27 1621.91 806.27 1621.5C806.27 1621.08 806.27 1620.66 806.27 1620.24C806.27 1619.82 806.27 1619.4 806.27 1618.98C806.27 1618.56 806.27 1618.14 806.27 1617.72C806.27 1617.3 806.27 1616.87 806.27 1616.45C806.27 1616.03 806.27 1615.6 806.27 1615.18C806.27 1614.76 806.27 1614.33 806.27 1613.9C806.27 1613.48 806.27 1613.05 806.27 1612.62C806.27 1612.2 806.27 1611.77 806.27 1611.34C806.27 1610.91 806.27 1610.48 806.27 1610.05C806.27 1609.62 806.27 1609.19 806.27 1608.76C806.27 1608.33 806.27 1607.9 806.27 1607.47C806.27 1607.03 806.27 1606.6 806.27 1606.17C806.27 1605.73 806.27 1605.3 806.27 1604.86C806.27 1604.43 806.27 1603.99 806.27 1603.56C806.27 1603.12 806.27 1602.68 806.27 1602.24C806.27 1601.81 806.27 1601.37 806.27 1600.93C806.27 1600.49 806.27 1600.05 806.27 1599.61C806.27 1599.17 806.27 1598.73 806.27 1598.28C806.27 1597.84 806.27 1597.4 806.27 1596.96C806.27 1596.51 806.27 1596.07 806.27 1595.62C806.27 1595.18 806.27 1594.73 806.27 1594.29C806.27 1593.84 806.27 1593.4 806.27 1592.95C806.27 1592.5 806.27 1592.05 806.27 1591.6C806.27 1591.15 806.27 1590.7 806.27 1590.25C806.27 1589.8 806.27 1589.35 806.27 1588.9C806.27 1588.45 806.27 1588 806.27 1587.55C806.27 1587.09 806.27 1586.64 806.27 1586.19C806.27 1585.73 806.27 1585.28 806.27 1584.82C806.27 1584.36 806.27 1583.91 806.27 1583.45C806.27 1582.99 806.27 1582.54 806.27 1582.08C806.27 1581.62 806.27 1581.16 806.27 1580.7C806.27 1580.24 806.27 1579.78 806.27 1579.32C806.27 1578.86 806.27 1578.4 806.27 1577.93C806.27 1577.47 806.27 1577.01 806.27 1576.55C806.27 1576.08 806.27 1575.62 806.27 1575.15C806.27 1574.69 806.27 1574.22 806.27 1573.75C806.27 1573.29 806.27 1572.82 806.27 1572.35C806.27 1571.88 806.27 1571.42 806.27 1570.95C806.27 1570.48 806.27 1570.01 806.27 1569.54C806.27 1569.07 806.27 1568.59 806.27 1568.12C806.27 1567.65 806.27 1567.18 806.27 1566.7C806.27 1566.23 806.27 1565.76 806.27 1565.28C806.27 1564.81 806.27 1564.33 806.27 1563.85C806.27 1563.38 806.27 1562.9 806.27 1562.42C806.27 1561.95 806.27 1561.47 806.27 1560.99C806.27 1560.51 806.27 1560.03 806.27 1559.55C806.27 1559.07 806.27 1558.59 806.27 1558.11C806.27 1557.62 806.27 1557.14 806.27 1556.66C806.27 1556.17 806.27 1555.69 806.27 1555.21C806.27 1554.72 806.27 1554.24 806.27 1553.75C806.27 1553.26 806.27 1552.78 806.27 1552.29C806.27 1551.8 806.27 1551.31 806.27 1550.83C806.27 1550.34 806.27 1549.85 806.27 1549.36C806.27 1548.87 806.27 1548.38 806.27 1547.88C806.27 1547.39 806.27 1546.9 806.27 1546.41C806.27 1545.92 806.27 1545.42 806.27 1544.93C806.27 1544.43 806.27 1543.94 806.27 1543.44C806.27 1542.95 806.27 1542.45 806.27 1541.95C806.27 1541.46 806.27 1540.96 806.27 1540.46C806.27 1539.96 806.27 1539.46 806.27 1538.96C806.27 1538.46 806.27 1537.96 806.27 1537.46C806.27 1536.96 806.27 1536.46 806.27 1535.95C806.27 1535.45 806.27 1534.95 806.27 1534.44C806.27 1533.94 806.27 1533.43 806.27 1532.93C806.27 1532.42 806.27 1531.92 806.27 1531.41C806.27 1530.9 806.27 1530.39 806.27 1529.89C806.27 1529.38 806.27 1528.87 806.27 1528.36C806.27 1527.85 806.27 1527.34 806.27 1526.83C806.27 1526.32 806.27 1525.8 806.27 1525.29C806.27 1524.78 806.27 1524.26 806.27 1523.75C806.27 1523.24 806.27 1522.72 806.27 1522.21C806.27 1521.69 806.27 1521.17 806.27 1520.66C806.27 1520.14 806.27 1519.62 806.27 1519.1C806.27 1518.59 806.27 1518.07 806.27 1517.55C806.27 1517.03 806.27 1516.51 806.27 1515.99C806.27 1515.46 806.27 1514.94 806.27 1514.42C806.27 1513.9 806.27 1513.37 806.27 1512.85C806.27 1512.33 806.27 1511.8 806.27 1511.28C806.27 1510.75 806.27 1510.22 806.27 1509.7C806.27 1509.17 806.27 1508.64 806.27 1508.11C806.27 1507.59 806.27 1507.06 806.27 1506.53C806.27 1506 806.27 1505.47 806.27 1504.94C806.27 1504.4 806.27 1503.87 806.27 1503.34C806.27 1502.81 806.27 1502.27 806.27 1501.74C806.27 1501.21 806.27 1500.67 806.27 1500.14C806.27 1499.6 806.27 1499.06 806.27 1498.53C806.27 1497.99 806.27 1497.45 806.27 1496.91C806.27 1496.38 806.27 1495.84 806.27 1495.3C806.27 1494.76 806.27 1494.22 806.27 1493.68C806.27 1493.13 806.27 1492.59 806.27 1492.05C806.27 1491.51 806.27 1490.96 806.27 1490.42C806.27 1489.88 806.27 1489.33 806.27 1488.79C806.27 1488.24 806.27 1487.69 806.27 1487.15C806.27 1486.6 806.27 1486.05 806.27 1485.5C806.27 1484.96 806.27 1484.41 806.27 1483.86C806.27 1483.31 806.27 1482.76 806.27 1482.2C806.27 1481.65 806.27 1481.1 806.27 1480.55C806.27 1480 806.27 1479.44 806.27 1478.89C806.27 1478.33 806.27 1477.78 806.27 1477.22C806.27 1476.67 806.27 1476.11 806.27 1475.55C806.27 1475 806.27 1474.44 806.27 1473.88C806.27 1473.32 806.27 1472.76 806.27 1472.2C806.27 1471.64 806.27 1471.08 806.27 1470.52C806.27 1469.96 806.27 1469.4 806.27 1468.83C806.27 1468.27 806.27 1467.71 806.27 1467.14C806.27 1466.58 806.27 1466.01 806.27 1465.45C806.27 1464.88 806.27 1464.31 806.27 1463.75C806.27 1463.18 806.27 1462.61 806.27 1462.04C806.27 1461.47 806.27 1460.91 806.27 1460.34C806.27 1459.76 806.27 1459.19 806.27 1458.62C806.27 1458.05 806.27 1457.48 806.27 1456.9C806.27 1456.33 806.27 1455.76 806.27 1455.18C806.27 1454.61 806.27 1454.03 806.27 1453.46C806.27 1452.88 806.27 1452.3 806.27 1451.73C806.27 1451.15 806.27 1450.57 806.27 1449.99C806.27 1449.41 806.27 1448.83 806.27 1448.25C806.27 1447.67 806.27 1447.09 806.27 1446.51C806.27 1445.93 806.27 1445.34 806.27 1444.76C806.27 1444.18 806.27 1443.59 806.27 1443.01C806.27 1442.42 806.27 1441.84 806.27 1441.25C806.27 1440.67 806.27 1440.08 806.27 1439.49C806.27 1438.9 806.27 1438.31 806.27 1437.72C806.27 1437.13 806.27 1436.54 806.27 1435.95C806.27 1435.36 806.27 1434.77 806.27 1434.18C806.27 1433.59 806.27 1432.99 806.27 1432.4C806.27 1431.81 806.27 1431.21 806.27 1430.62C806.27 1430.02 806.27 1429.43 806.27 1428.83C806.27 1428.23 806.27 1427.63 806.27 1427.04C806.27 1426.44 806.27 1425.84 806.27 1425.24C806.27 1424.64 806.27 1424.04 806.27 1423.44C806.27 1422.84 806.27 1422.24 806.27 1421.63C806.27 1421.03 806.27 1420.43 806.27 1419.82C806.27 1419.22 806.27 1418.61 806.27 1418.01C806.27 1417.4 806.27 1416.8 806.27 1416.19C806.27 1415.58 806.27 1414.97 806.27 1414.36C806.27 1413.76 806.27 1413.15 806.27 1412.54C806.27 1411.93 806.27 1411.32 806.27 1410.7C806.27 1410.09 806.27 1409.48 806.27 1408.87H722.27C722.27 1409.48 722.27 1410.09 722.27 1410.7C722.27 1411.32 722.27 1411.93 722.27 1412.54C722.27 1413.15 722.27 1413.76 722.27 1414.36C722.27 1414.97 722.27 1415.58 722.27 1416.19C722.27 1416.8 722.27 1417.4 722.27 1418.01C722.27 1418.61 722.27 1419.22 722.27 1419.82C722.27 1420.43 722.27 1421.03 722.27 1421.63C722.27 1422.24 722.27 1422.84 722.27 1423.44C722.27 1424.04 722.27 1424.64 722.27 1425.24C722.27 1425.84 722.27 1426.44 722.27 1427.04C722.27 1427.63 722.27 1428.23 722.27 1428.83C722.27 1429.43 722.27 1430.02 722.27 1430.62C722.27 1431.21 722.27 1431.81 722.27 1432.4C722.27 1432.99 722.27 1433.59 722.27 1434.18C722.27 1434.77 722.27 1435.36 722.27 1435.95C722.27 1436.54 722.27 1437.13 722.27 1437.72C722.27 1438.31 722.27 1438.9 722.27 1439.49C722.27 1440.08 722.27 1440.67 722.27 1441.25C722.27 1441.84 722.27 1442.42 722.27 1443.01C722.27 1443.59 722.27 1444.18 722.27 1444.76C722.27 1445.34 722.27 1445.93 722.27 1446.51C722.27 1447.09 722.27 1447.67 722.27 1448.25C722.27 1448.83 722.27 1449.41 722.27 1449.99C722.27 1450.57 722.27 1451.15 722.27 1451.73C722.27 1452.3 722.27 1452.88 722.27 1453.46C722.27 1454.03 722.27 1454.61 722.27 1455.18C722.27 1455.76 722.27 1456.33 722.27 1456.9C722.27 1457.48 722.27 1458.05 722.27 1458.62C722.27 1459.19 722.27 1459.76 722.27 1460.34C722.27 1460.91 722.27 1461.47 722.27 1462.04C722.27 1462.61 722.27 1463.18 722.27 1463.75C722.27 1464.31 722.27 1464.88 722.27 1465.45C722.27 1466.01 722.27 1466.58 722.27 1467.14C722.27 1467.71 722.27 1468.27 722.27 1468.83C722.27 1469.4 722.27 1469.96 722.27 1470.52C722.27 1471.08 722.27 1471.64 722.27 1472.2C722.27 1472.76 722.27 1473.32 722.27 1473.88C722.27 1474.44 722.27 1475 722.27 1475.55C722.27 1476.11 722.27 1476.67 722.27 1477.22C722.27 1477.78 722.27 1478.33 722.27 1478.89C722.27 1479.44 722.27 1480 722.27 1480.55C722.27 1481.1 722.27 1481.65 722.27 1482.2C722.27 1482.76 722.27 1483.31 722.27 1483.86C722.27 1484.41 722.27 1484.96 722.27 1485.5C722.27 1486.05 722.27 1486.6 722.27 1487.15C722.27 1487.69 722.27 1488.24 722.27 1488.79C722.27 1489.33 722.27 1489.88 722.27 1490.42C722.27 1490.96 722.27 1491.51 722.27 1492.05C722.27 1492.59 722.27 1493.13 722.27 1493.68C722.27 1494.22 722.27 1494.76 722.27 1495.3C722.27 1495.84 722.27 1496.38 722.27 1496.91C722.27 1497.45 722.27 1497.99 722.27 1498.53C722.27 1499.06 722.27 1499.6 722.27 1500.14C722.27 1500.67 722.27 1501.21 722.27 1501.74C722.27 1502.27 722.27 1502.81 722.27 1503.34C722.27 1503.87 722.27 1504.4 722.27 1504.94C722.27 1505.47 722.27 1506 722.27 1506.53C722.27 1507.06 722.27 1507.59 722.27 1508.11C722.27 1508.64 722.27 1509.17 722.27 1509.7C722.27 1510.22 722.27 1510.75 722.27 1511.28C722.27 1511.8 722.27 1512.33 722.27 1512.85C722.27 1513.37 722.27 1513.9 722.27 1514.42C722.27 1514.94 722.27 1515.46 722.27 1515.99C722.27 1516.51 722.27 1517.03 722.27 1517.55C722.27 1518.07 722.27 1518.59 722.27 1519.1C722.27 1519.62 722.27 1520.14 722.27 1520.66C722.27 1521.17 722.27 1521.69 722.27 1522.21C722.27 1522.72 722.27 1523.24 722.27 1523.75C722.27 1524.26 722.27 1524.78 722.27 1525.29C722.27 1525.8 722.27 1526.32 722.27 1526.83C722.27 1527.34 722.27 1527.85 722.27 1528.36C722.27 1528.87 722.27 1529.38 722.27 1529.89C722.27 1530.39 722.27 1530.9 722.27 1531.41C722.27 1531.92 722.27 1532.42 722.27 1532.93C722.27 1533.43 722.27 1533.94 722.27 1534.44C722.27 1534.95 722.27 1535.45 722.27 1535.95C722.27 1536.46 722.27 1536.96 722.27 1537.46C722.27 1537.96 722.27 1538.46 722.27 1538.96C722.27 1539.46 722.27 1539.96 722.27 1540.46C722.27 1540.96 722.27 1541.46 722.27 1541.95C722.27 1542.45 722.27 1542.95 722.27 1543.44C722.27 1543.94 722.27 1544.43 722.27 1544.93C722.27 1545.42 722.27 1545.92 722.27 1546.41C722.27 1546.9 722.27 1547.39 722.27 1547.88C722.27 1548.38 722.27 1548.87 722.27 1549.36C722.27 1549.85 722.27 1550.34 722.27 1550.83C722.27 1551.31 722.27 1551.8 722.27 1552.29C722.27 1552.78 722.27 1553.26 722.27 1553.75C722.27 1554.24 722.27 1554.72 722.27 1555.21C722.27 1555.69 722.27 1556.17 722.27 1556.66C722.27 1557.14 722.27 1557.62 722.27 1558.11C722.27 1558.59 722.27 1559.07 722.27 1559.55C722.27 1560.03 722.27 1560.51 722.27 1560.99C722.27 1561.47 722.27 1561.95 722.27 1562.42C722.27 1562.9 722.27 1563.38 722.27 1563.85C722.27 1564.33 722.27 1564.81 722.27 1565.28C722.27 1565.76 722.27 1566.23 722.27 1566.7C722.27 1567.18 722.27 1567.65 722.27 1568.12C722.27 1568.59 722.27 1569.07 722.27 1569.54C722.27 1570.01 722.27 1570.48 722.27 1570.95C722.27 1571.42 722.27 1571.88 722.27 1572.35C722.27 1572.82 722.27 1573.29 722.27 1573.75C722.27 1574.22 722.27 1574.69 722.27 1575.15C722.27 1575.62 722.27 1576.08 722.27 1576.55C722.27 1577.01 722.27 1577.47 722.27 1577.93C722.27 1578.4 722.27 1578.86 722.27 1579.32C722.27 1579.78 722.27 1580.24 722.27 1580.7C722.27 1581.16 722.27 1581.62 722.27 1582.08C722.27 1582.54 722.27 1582.99 722.27 1583.45C722.27 1583.91 722.27 1584.36 722.27 1584.82C722.27 1585.28 722.27 1585.73 722.27 1586.19C722.27 1586.64 722.27 1587.09 722.27 1587.55C722.27 1588 722.27 1588.45 722.27 1588.9C722.27 1589.35 722.27 1589.8 722.27 1590.25C722.27 1590.7 722.27 1591.15 722.27 1591.6C722.27 1592.05 722.27 1592.5 722.27 1592.95C722.27 1593.4 722.27 1593.84 722.27 1594.29C722.27 1594.73 722.27 1595.18 722.27 1595.62C722.27 1596.07 722.27 1596.51 722.27 1596.96C722.27 1597.4 722.27 1597.84 722.27 1598.28C722.27 1598.73 722.27 1599.17 722.27 1599.61C722.27 1600.05 722.27 1600.49 722.27 1600.93C722.27 1601.37 722.27 1601.81 722.27 1602.24C722.27 1602.68 722.27 1603.12 722.27 1603.56C722.27 1603.99 722.27 1604.43 722.27 1604.86C722.27 1605.3 722.27 1605.73 722.27 1606.17C722.27 1606.6 722.27 1607.03 722.27 1607.47C722.27 1607.9 722.27 1608.33 722.27 1608.76C722.27 1609.19 722.27 1609.62 722.27 1610.05C722.27 1610.48 722.27 1610.91 722.27 1611.34C722.27 1611.77 722.27 1612.2 722.27 1612.62C722.27 1613.05 722.27 1613.48 722.27 1613.9C722.27 1614.33 722.27 1614.76 722.27 1615.18C722.27 1615.6 722.27 1616.03 722.27 1616.45C722.27 1616.87 722.27 1617.3 722.27 1617.72C722.27 1618.14 722.27 1618.56 722.27 1618.98C722.27 1619.4 722.27 1619.82 722.27 1620.24C722.27 1620.66 722.27 1621.08 722.27 1621.5C722.27 1621.91 722.27 1622.33 722.27 1622.75C722.27 1623.16 722.27 1623.58 722.27 1624C722.27 1624.41 722.27 1624.82 722.27 1625.24C722.27 1625.65 722.27 1626.07 722.27 1626.48C722.27 1626.89 722.27 1627.3 722.27 1627.71C722.27 1628.12 722.27 1628.53 722.27 1628.94C722.27 1629.35 722.27 1629.76 722.27 1630.17C722.27 1630.58 722.27 1630.99 722.27 1631.4C722.27 1631.8 722.27 1632.21 722.27 1632.61C722.27 1633.02 722.27 1633.43 722.27 1633.83C722.27 1634.23 722.27 1634.64 722.27 1635.04C722.27 1635.44 722.27 1635.85 722.27 1636.25C722.27 1636.65 722.27 1637.05 722.27 1637.45C722.27 1637.85 722.27 1638.25 722.27 1638.65C722.27 1639.05 722.27 1639.45 722.27 1639.85C722.27 1640.25 722.27 1640.64 722.27 1641.04C722.27 1641.44 722.27 1641.83 722.27 1642.23C722.27 1642.62 722.27 1643.02 722.27 1643.41C722.27 1643.8 722.27 1644.2 722.27 1644.59C722.27 1644.98 722.27 1645.38 722.27 1645.77C722.27 1646.16 722.27 1646.55 722.27 1646.94C722.27 1647.33 722.27 1647.72 722.27 1648.11C722.27 1648.5 722.27 1648.88 722.27 1649.27C722.27 1649.66 722.27 1650.04 722.27 1650.43C722.27 1650.82 722.27 1651.2 722.27 1651.59C722.27 1651.97 722.27 1652.36 722.27 1652.74C722.27 1653.12 722.27 1653.51 722.27 1653.89C722.27 1654.27 722.27 1654.65 722.27 1655.03C722.27 1655.41 722.27 1655.79 722.27 1656.17C722.27 1656.55 722.27 1656.93 722.27 1657.31C722.27 1657.69 722.27 1658.07 722.27 1658.44C722.27 1658.82 722.27 1659.2 722.27 1659.57C722.27 1659.95 722.27 1660.32 722.27 1660.7C722.27 1661.07 722.27 1661.44 722.27 1661.82C722.27 1662.19 722.27 1662.56 722.27 1662.94C722.27 1663.31 722.27 1663.68 722.27 1664.05C722.27 1664.42 722.27 1664.79 722.27 1665.16C722.27 1665.53 722.27 1665.9 722.27 1666.26C722.27 1666.63 722.27 1667 722.27 1667.37C722.27 1667.73 722.27 1668.1 722.27 1668.46C722.27 1668.83 722.27 1669.19 722.27 1669.56C722.27 1669.92 722.27 1670.28 722.27 1670.65C722.27 1671.01 722.27 1671.37 722.27 1671.73C722.27 1672.09 722.27 1672.46 722.27 1672.82C722.27 1673.18 722.27 1673.54 722.27 1673.89C722.27 1674.25 722.27 1674.61 722.27 1674.97C722.27 1675.33 722.27 1675.68 722.27 1676.04C722.27 1676.4 722.27 1676.75 722.27 1677.11C722.27 1677.46 722.27 1677.82 722.27 1678.17C722.27 1678.52 722.27 1678.88 722.27 1679.23C722.27 1679.58 722.27 1679.93 722.27 1680.29C722.27 1680.64 722.27 1680.99 722.27 1681.34C722.27 1681.69 722.27 1682.04 722.27 1682.38C722.27 1682.73 722.27 1683.08 722.27 1683.43C722.27 1683.78 722.27 1684.12 722.27 1684.47C722.27 1684.82 722.27 1685.16 722.27 1685.51C722.27 1685.85 722.27 1686.19 722.27 1686.54C722.27 1686.88 722.27 1687.22 722.27 1687.57C722.27 1687.91 722.27 1688.25 722.27 1688.59C722.27 1688.93 722.27 1689.27 722.27 1689.61C722.27 1689.95 722.27 1690.29 722.27 1690.63C722.27 1690.97 722.27 1691.31 722.27 1691.64C722.27 1691.98 722.27 1692.32 722.27 1692.65C722.27 1692.99 722.27 1693.33 722.27 1693.66C722.27 1693.99 722.27 1694.33 722.27 1694.66C722.27 1695 722.27 1695.33 722.27 1695.66C722.27 1695.99 722.27 1696.32 722.27 1696.66C722.27 1696.99 722.27 1697.32 722.27 1697.65C722.27 1697.98 722.27 1698.31 722.27 1698.63C722.27 1698.96 722.27 1699.29 722.27 1699.62C722.27 1699.94 722.27 1700.27 722.27 1700.6C722.27 1700.92 722.27 1701.25 722.27 1701.57C722.27 1701.9 722.27 1702.22 722.27 1702.54C722.27 1702.87 722.27 1703.19 722.27 1703.51C722.27 1703.84 722.27 1704.16 722.27 1704.48C722.27 1704.8 722.27 1705.12 722.27 1705.44C722.27 1705.76 722.27 1706.08 722.27 1706.4C722.27 1706.71 722.27 1707.03 722.27 1707.35C722.27 1707.67 722.27 1707.98 722.27 1708.3C722.27 1708.62 722.27 1708.93 722.27 1709.25C722.27 1709.56 722.27 1709.87 722.27 1710.19C722.27 1710.5 722.27 1710.81 722.27 1711.13C722.27 1711.44 722.27 1711.75 722.27 1712.06C722.27 1712.37 722.27 1712.68 722.27 1712.99C722.27 1713.3 722.27 1713.61 722.27 1713.92C722.27 1714.23 722.27 1714.54 722.27 1714.84C722.27 1715.15 722.27 1715.46 722.27 1715.76C722.27 1716.07 722.27 1716.37 722.27 1716.68C722.27 1716.98 722.27 1717.29 722.27 1717.59C722.27 1717.9 722.27 1718.2 722.27 1718.5C722.27 1718.8 722.27 1719.1 722.27 1719.41C722.27 1719.71 722.27 1720.01 722.27 1720.31C722.27 1720.61 722.27 1720.91 722.27 1721.21C722.27 1721.5 722.27 1721.8 722.27 1722.1C722.27 1722.4 722.27 1722.69 722.27 1722.99C722.27 1723.29 722.27 1723.58 722.27 1723.88C722.27 1724.17 722.27 1724.47 722.27 1724.76C722.27 1725.05 722.27 1725.35 722.27 1725.64C722.27 1725.93 722.27 1726.22 722.27 1726.51C722.27 1726.81 722.27 1727.1 722.27 1727.39C722.27 1727.68 722.27 1727.97 722.27 1728.26C722.27 1728.54 722.27 1728.83 722.27 1729.12C722.27 1729.41 722.27 1729.7 722.27 1729.98C722.27 1730.27 722.27 1730.55 722.27 1730.84C722.27 1731.12 722.27 1731.41 722.27 1731.69C722.27 1731.98 722.27 1732.26 722.27 1732.54C722.27 1732.83 722.27 1733.11 722.27 1733.39C722.27 1733.67 722.27 1733.95 722.27 1734.23C722.27 1734.51 722.27 1734.79 722.27 1735.07C722.27 1735.35 722.27 1735.63 722.27 1735.91C722.27 1736.19 722.27 1736.46 722.27 1736.74C722.27 1737.02 722.27 1737.29 722.27 1737.57C722.27 1737.84 722.27 1738.12 722.27 1738.39C722.27 1738.67 722.27 1738.94 722.27 1739.21C722.27 1739.49 722.27 1739.76 722.27 1740.03C722.27 1740.3 722.27 1740.58 722.27 1740.85C722.27 1741.12 722.27 1741.39 722.27 1741.66C722.27 1741.93 722.27 1742.2 722.27 1742.46C722.27 1742.73 722.27 1743 722.27 1743.27C722.27 1743.53 722.27 1743.8 722.27 1744.07C722.27 1744.33 722.27 1744.6 722.27 1744.86C722.27 1745.13 722.27 1745.39 722.27 1745.66C722.27 1745.92 722.27 1746.18 722.27 1746.44C722.27 1746.71 722.27 1746.97 722.27 1747.23C722.27 1747.49 722.27 1747.75 722.27 1748.01C722.27 1748.27 722.27 1748.53 722.27 1748.79C722.27 1749.05 722.27 1749.31 722.27 1749.56C722.27 1749.82 722.27 1750.08 722.27 1750.34C722.27 1750.59 722.27 1750.85 722.27 1751.1C722.27 1751.36 722.27 1751.61 722.27 1751.87C722.27 1752.12 722.27 1752.37 722.27 1752.63C722.27 1752.88 722.27 1753.13 722.27 1753.38C722.27 1753.64 722.27 1753.89 722.27 1754.14C722.27 1754.39 722.27 1754.64 722.27 1754.89C722.27 1755.14 722.27 1755.39 722.27 1755.63C722.27 1755.88 722.27 1756.13 722.27 1756.38C722.27 1756.62 722.27 1756.87 722.27 1757.12C722.27 1757.36 722.27 1757.61 722.27 1757.85C722.27 1758.1 722.27 1758.34 722.27 1758.58C722.27 1758.83 722.27 1759.07 722.27 1759.31C722.27 1759.55 722.27 1759.8 722.27 1760.04C722.27 1760.28 722.27 1760.52 722.27 1760.76C722.27 1761 722.27 1761.24 722.27 1761.48C722.27 1761.72 722.27 1761.95 722.27 1762.19C722.27 1762.43 722.27 1762.67 722.27 1762.9C722.27 1763.14 722.27 1763.37 722.27 1763.61C722.27 1763.85 722.27 1764.08 722.27 1764.31C722.27 1764.55 722.27 1764.78 722.27 1765.01C722.27 1765.25 722.27 1765.48 722.27 1765.71C722.27 1765.94 722.27 1766.18 722.27 1766.41C722.27 1766.64 722.27 1766.87 722.27 1767.1C722.27 1767.33 722.27 1767.55 722.27 1767.78C722.27 1768.01 722.27 1768.24 722.27 1768.47C722.27 1768.69 722.27 1768.92 722.27 1769.15C722.27 1769.37 722.27 1769.6 722.27 1769.82C722.27 1770.05 722.27 1770.27 722.27 1770.49C722.27 1770.72 722.27 1770.94 722.27 1771.16C722.27 1771.39 722.27 1771.61 722.27 1771.83C722.27 1772.05 722.27 1772.27 722.27 1772.49C722.27 1772.71 722.27 1772.93 722.27 1773.15C722.27 1773.37 722.27 1773.59 722.27 1773.81C722.27 1774.02 722.27 1774.24 722.27 1774.46C722.27 1774.68 722.27 1774.89 722.27 1775.11C722.27 1775.32 722.27 1775.54 722.27 1775.75C722.27 1775.97 722.27 1776.18 722.27 1776.39C722.27 1776.61 722.27 1776.82 722.27 1777.03C722.27 1777.25 722.27 1777.46 722.27 1777.67C722.27 1777.88 722.27 1778.09 722.27 1778.3C722.27 1778.51 722.27 1778.72 722.27 1778.93C722.27 1779.14 722.27 1779.34 722.27 1779.55C722.27 1779.76 722.27 1779.97 722.27 1780.17C722.27 1780.38 722.27 1780.59 722.27 1780.79C722.27 1781 722.27 1781.2 722.27 1781.41C722.27 1781.61 722.27 1781.81 722.27 1782.02C722.27 1782.22 722.27 1782.42 722.27 1782.62C722.27 1782.83 722.27 1783.03 722.27 1783.23C722.27 1783.43 722.27 1783.63 722.27 1783.83C722.27 1784.03 722.27 1784.23 722.27 1784.43C722.27 1784.63 722.27 1784.82 722.27 1785.02C722.27 1785.22 722.27 1785.42 722.27 1785.61C722.27 1785.81 722.27 1786 722.27 1786.2C722.27 1786.39 722.27 1786.59 722.27 1786.78C722.27 1786.98 722.27 1787.17 722.27 1787.36C722.27 1787.56 722.27 1787.75 722.27 1787.94C722.27 1788.13 722.27 1788.32 722.27 1788.52C722.27 1788.71 722.27 1788.9 722.27 1789.09C722.27 1789.28 722.27 1789.46 722.27 1789.65C722.27 1789.84 722.27 1790.03 722.27 1790.22C722.27 1790.4 722.27 1790.59 722.27 1790.78C722.27 1790.96 722.27 1791.15 722.27 1791.33C722.27 1791.52 722.27 1791.7 722.27 1791.89C722.27 1792.07 722.27 1792.26 722.27 1792.44C722.27 1792.62 722.27 1792.8 722.27 1792.99C722.27 1793.17 722.27 1793.35 722.27 1793.53C722.27 1793.71 722.27 1793.89 722.27 1794.07C722.27 1794.25 722.27 1794.43 722.27 1794.61C722.27 1794.79 722.27 1794.96 722.27 1795.14C722.27 1795.32 722.27 1795.5 722.27 1795.67C722.27 1795.85 722.27 1796.02 722.27 1796.2C722.27 1796.37 722.27 1796.55 722.27 1796.72C722.27 1796.9 722.27 1797.07 722.27 1797.24C722.27 1797.42 722.27 1797.59 722.27 1797.76C722.27 1797.93 722.27 1798.1 722.27 1798.27C722.27 1798.45 722.27 1798.62 722.27 1798.79C722.27 1798.96 722.27 1799.12 722.27 1799.29C722.27 1799.46 722.27 1799.63 722.27 1799.8C722.27 1799.96 722.27 1800.13 722.27 1800.3C722.27 1800.46 722.27 1800.63 722.27 1800.8C722.27 1800.96 722.27 1801.13 722.27 1801.29C722.27 1801.45 722.27 1801.62 722.27 1801.78C722.27 1801.94 722.27 1802.11 722.27 1802.27C722.27 1802.43 722.27 1802.59 722.27 1802.75C722.27 1802.91 722.27 1803.07 722.27 1803.23C722.27 1803.39 722.27 1803.55 722.27 1803.71C722.27 1803.87 722.27 1804.03 722.27 1804.19C722.27 1804.34 722.27 1804.5 722.27 1804.66C722.27 1804.81 722.27 1804.97 722.27 1805.13C722.27 1805.28 722.27 1805.44 722.27 1805.59C722.27 1805.75 722.27 1805.9 722.27 1806.05C722.27 1806.21 722.27 1806.36 722.27 1806.51C722.27 1806.66 722.27 1806.82 722.27 1806.97C722.27 1807.12 722.27 1807.27 722.27 1807.42C722.27 1807.57 722.27 1807.72 722.27 1807.87C722.27 1808.02 722.27 1808.17 722.27 1808.31C722.27 1808.46 722.27 1808.61 722.27 1808.76C722.27 1808.9 722.27 1809.05 722.27 1809.19C722.27 1809.34 722.27 1809.49 722.27 1809.63C722.27 1809.78 722.27 1809.92 722.27 1810.06C722.27 1810.21 722.27 1810.35 722.27 1810.49C722.27 1810.63 722.27 1810.78 722.27 1810.92C722.27 1811.06 722.27 1811.2 722.27 1811.34C722.27 1811.48 722.27 1811.62 722.27 1811.76C722.27 1811.9 722.27 1812.04 722.27 1812.18C722.27 1812.32 722.27 1812.45 722.27 1812.59C722.27 1812.73 722.27 1812.87 722.27 1813C722.27 1813.14 722.27 1813.27 722.27 1813.41C722.27 1813.54 722.27 1813.68 722.27 1813.81C722.27 1813.95 722.27 1814.08 722.27 1814.21C722.27 1814.35 722.27 1814.48 722.27 1814.61C722.27 1814.74 722.27 1814.87 722.27 1815.01C722.27 1815.14 722.27 1815.27 722.27 1815.4C722.27 1815.53 722.27 1815.66 722.27 1815.78C722.27 1815.91 722.27 1816.04 722.27 1816.17C722.27 1816.3 722.27 1816.42 722.27 1816.55C722.27 1816.68 722.27 1816.8 722.27 1816.93C722.27 1817.06 722.27 1817.18 722.27 1817.31C722.27 1817.43 722.27 1817.55 722.27 1817.68C722.27 1817.8 722.27 1817.92 722.27 1818.05C722.27 1818.17 722.27 1818.29 722.27 1818.41C722.27 1818.53 722.27 1818.66 722.27 1818.78C722.27 1818.9 722.27 1819.02 722.27 1819.14C722.27 1819.26 722.27 1819.37 722.27 1819.49C722.27 1819.61 722.27 1819.73 722.27 1819.85C722.27 1819.96 722.27 1820.08 722.27 1820.2C722.27 1820.31 722.27 1820.43 722.27 1820.54C722.27 1820.66 722.27 1820.77 722.27 1820.89C722.27 1821 722.27 1821.12 722.27 1821.23C722.27 1821.34 722.27 1821.45 722.27 1821.57C722.27 1821.68 722.27 1821.79 722.27 1821.9C722.27 1822.01 722.27 1822.12 722.27 1822.23C722.27 1822.34 722.27 1822.45 722.27 1822.56C722.27 1822.67 722.27 1822.78 722.27 1822.89C722.27 1823 722.27 1823.1 722.27 1823.21C722.27 1823.32 722.27 1823.42 722.27 1823.53C722.27 1823.64 722.27 1823.74 722.27 1823.85C722.27 1823.95 722.27 1824.06 722.27 1824.16C722.27 1824.26 722.27 1824.37 722.27 1824.47C722.27 1824.57 722.27 1824.67 722.27 1824.78C722.27 1824.88 722.27 1824.98 722.27 1825.08C722.27 1825.18 722.27 1825.28 722.27 1825.38C722.27 1825.48 722.27 1825.58 722.27 1825.68C722.27 1825.78 722.27 1825.88 722.27 1825.97C722.27 1826.07 722.27 1826.17 722.27 1826.27C722.27 1826.36 722.27 1826.46 722.27 1826.55C722.27 1826.65 722.27 1826.75 722.27 1826.84C722.27 1826.93 722.27 1827.03 722.27 1827.12C722.27 1827.22 722.27 1827.31 722.27 1827.4C722.27 1827.5 722.27 1827.59 722.27 1827.68C722.27 1827.77 722.27 1827.86 722.27 1827.95C722.27 1828.04 722.27 1828.13 722.27 1828.22C722.27 1828.31 722.27 1828.4 722.27 1828.49C722.27 1828.58 722.27 1828.67 722.27 1828.75C722.27 1828.84 722.27 1828.93 722.27 1829.02C722.27 1829.1 722.27 1829.19 722.27 1829.27C722.27 1829.36 722.27 1829.45 722.27 1829.53C722.27 1829.61 722.27 1829.7 722.27 1829.78C722.27 1829.87 722.27 1829.95 722.27 1830.03C722.27 1830.11 722.27 1830.2 722.27 1830.28C722.27 1830.36 722.27 1830.44 722.27 1830.52C722.27 1830.6 722.27 1830.68 722.27 1830.76C722.27 1830.84 722.27 1830.92 722.27 1831C722.27 1831.08 722.27 1831.16 722.27 1831.23C722.27 1831.31 722.27 1831.39 722.27 1831.47C722.27 1831.54 722.27 1831.62 722.27 1831.69C722.27 1831.77 722.27 1831.84 722.27 1831.92C722.27 1831.99 722.27 1832.07 722.27 1832.14C722.27 1832.22 722.27 1832.29 722.27 1832.36C722.27 1832.43 722.27 1832.51 722.27 1832.58C722.27 1832.65 722.27 1832.72 722.27 1832.79C722.27 1832.86 722.27 1832.93 722.27 1833C722.27 1833.07 722.27 1833.14 722.27 1833.21C722.27 1833.28 722.27 1833.35 722.27 1833.41C722.27 1833.48 722.27 1833.55 722.27 1833.62C722.27 1833.68 722.27 1833.75 722.27 1833.82C722.27 1833.88 722.27 1833.95 722.27 1834.01C722.27 1834.08 722.27 1834.14 722.27 1834.2C722.27 1834.27 722.27 1834.33 722.27 1834.39C722.27 1834.46 722.27 1834.52 722.27 1834.58C722.27 1834.64 722.27 1834.7 722.27 1834.77C722.27 1834.83 722.27 1834.89 722.27 1834.95C722.27 1835.01 722.27 1835.07 722.27 1835.12C722.27 1835.18 722.27 1835.24 722.27 1835.3C722.27 1835.36 722.27 1835.42 722.27 1835.47C722.27 1835.53 722.27 1835.59 722.27 1835.64C722.27 1835.7 722.27 1835.75 722.27 1835.81C722.27 1835.86 722.27 1835.92 722.27 1835.97C722.27 1836.03 722.27 1836.08 722.27 1836.13C722.27 1836.19 722.27 1836.24 722.27 1836.29C722.27 1836.34 722.27 1836.4 722.27 1836.45C722.27 1836.5 722.27 1836.55 722.27 1836.6C722.27 1836.65 722.27 1836.7 722.27 1836.75C722.27 1836.8 722.27 1836.85 722.27 1836.89C722.27 1836.94 722.27 1836.99 722.27 1837.04C722.27 1837.09 722.27 1837.13 722.27 1837.18C722.27 1837.23 722.27 1837.27 722.27 1837.32C722.27 1837.36 722.27 1837.41 722.27 1837.45C722.27 1837.5 722.27 1837.54 722.27 1837.58C722.27 1837.63 722.27 1837.67 722.27 1837.71C722.27 1837.76 722.27 1837.8 722.27 1837.84C722.27 1837.88 722.27 1837.92 722.27 1837.96C722.27 1838 722.27 1838.04 722.27 1838.08C722.27 1838.12 722.27 1838.16 722.27 1838.2C722.27 1838.24 722.27 1838.28 722.27 1838.32C722.27 1838.35 722.27 1838.39 722.27 1838.43C722.27 1838.46 722.27 1838.5 722.27 1838.54C722.27 1838.57 722.27 1838.61 722.27 1838.64C722.27 1838.68 722.27 1838.71 722.27 1838.75C722.27 1838.78 722.27 1838.82 722.27 1838.85C722.27 1838.88 722.27 1838.91 722.27 1838.95C722.27 1838.98 722.27 1839.01 722.27 1839.04C722.27 1839.07 722.27 1839.1 722.27 1839.13C722.27 1839.16 722.27 1839.19 722.27 1839.22C722.27 1839.25 722.27 1839.28 722.27 1839.31C722.27 1839.34 722.27 1839.37 722.27 1839.39C722.27 1839.42 722.27 1839.45 722.27 1839.47C722.27 1839.5 722.27 1839.53 722.27 1839.55C722.27 1839.58 722.27 1839.6 722.27 1839.63C722.27 1839.65 722.27 1839.68 722.27 1839.7C722.27 1839.72 722.27 1839.75 722.27 1839.77C722.27 1839.79 722.27 1839.82 722.27 1839.84C722.27 1839.86 722.27 1839.88 722.27 1839.9C722.27 1839.92 722.27 1839.94 722.27 1839.96C722.27 1839.98 722.27 1840 722.27 1840.02C722.27 1840.04 722.27 1840.06 722.27 1840.08C722.27 1840.1 722.27 1840.11 722.27 1840.13C722.27 1840.15 722.27 1840.17 722.27 1840.18C722.27 1840.2 722.27 1840.22 722.27 1840.23C722.27 1840.25 722.27 1840.26 722.27 1840.28C722.27 1840.29 722.27 1840.3 722.27 1840.32C722.27 1840.33 722.27 1840.34 722.27 1840.36C722.27 1840.37 722.27 1840.38 722.27 1840.39C722.27 1840.41 722.27 1840.42 722.27 1840.43C722.27 1840.44 722.27 1840.45 722.27 1840.46C722.27 1840.47 722.27 1840.48 722.27 1840.49C722.27 1840.5 722.27 1840.51 722.27 1840.51C722.27 1840.52 722.27 1840.53 722.27 1840.54C722.27 1840.54 722.27 1840.55 722.27 1840.56C722.27 1840.56 722.27 1840.57 722.27 1840.57C722.27 1840.58 722.27 1840.58 722.27 1840.59C722.27 1840.59 722.27 1840.6 722.27 1840.6C722.27 1840.61 722.27 1840.61 722.27 1840.61C722.27 1840.61 722.27 1840.62 722.27 1840.62C722.27 1840.62 722.27 1840.62 722.27 1840.62C722.27 1840.62 722.27 1840.62 764.27 1840.62Z" fill="white"/>
<path d="M1842.03 805.796H1884.03V721.796H1842.03V805.796ZM1414.16 721.796C1390.96 721.796 1372.16 740.6 1372.16 763.796C1372.16 786.992 1390.96 805.796 1414.16 805.796V721.796ZM1414.16 805.796C1414.76 805.796 1415.35 805.796 1415.95 805.796C1416.54 805.796 1417.14 805.796 1417.73 805.796C1418.32 805.796 1418.91 805.796 1419.51 805.796C1420.1 805.796 1420.69 805.796 1421.28 805.796C1421.87 805.796 1422.46 805.796 1423.05 805.796C1423.64 805.796 1424.23 805.796 1424.82 805.796C1425.4 805.796 1425.99 805.796 1426.58 805.796C1427.16 805.796 1427.75 805.796 1428.33 805.796C1428.92 805.796 1429.5 805.796 1430.09 805.796C1430.67 805.796 1431.25 805.796 1431.84 805.796C1432.42 805.796 1433 805.796 1433.58 805.796C1434.16 805.796 1434.74 805.796 1435.32 805.796C1435.9 805.796 1436.48 805.796 1437.06 805.796C1437.64 805.796 1438.21 805.796 1438.79 805.796C1439.37 805.796 1439.94 805.796 1440.52 805.796C1441.09 805.796 1441.67 805.796 1442.24 805.796C1442.82 805.796 1443.39 805.796 1443.96 805.796C1444.54 805.796 1445.11 805.796 1445.68 805.796C1446.25 805.796 1446.82 805.796 1447.39 805.796C1447.96 805.796 1448.53 805.796 1449.1 805.796C1449.67 805.796 1450.23 805.796 1450.8 805.796C1451.37 805.796 1451.94 805.796 1452.5 805.796C1453.07 805.796 1453.63 805.796 1454.2 805.796C1454.76 805.796 1455.32 805.796 1455.89 805.796C1456.45 805.796 1457.01 805.796 1457.57 805.796C1458.14 805.796 1458.7 805.796 1459.26 805.796C1459.82 805.796 1460.38 805.796 1460.94 805.796C1461.49 805.796 1462.05 805.796 1462.61 805.796C1463.17 805.796 1463.72 805.796 1464.28 805.796C1464.84 805.796 1465.39 805.796 1465.95 805.796C1466.5 805.796 1467.06 805.796 1467.61 805.796C1468.16 805.796 1468.72 805.796 1469.27 805.796C1469.82 805.796 1470.37 805.796 1470.92 805.796C1471.47 805.796 1472.02 805.796 1472.57 805.796C1473.12 805.796 1473.67 805.796 1474.22 805.796C1474.77 805.796 1475.31 805.796 1475.86 805.796C1476.41 805.796 1476.95 805.796 1477.5 805.796C1478.04 805.796 1478.59 805.796 1479.13 805.796C1479.67 805.796 1480.22 805.796 1480.76 805.796C1481.3 805.796 1481.84 805.796 1482.39 805.796C1482.93 805.796 1483.47 805.796 1484.01 805.796C1484.55 805.796 1485.09 805.796 1485.62 805.796C1486.16 805.796 1486.7 805.796 1487.24 805.796C1487.77 805.796 1488.31 805.796 1488.85 805.796C1489.38 805.796 1489.92 805.796 1490.45 805.796C1490.99 805.796 1491.52 805.796 1492.05 805.796C1492.59 805.796 1493.12 805.796 1493.65 805.796C1494.18 805.796 1494.71 805.796 1495.24 805.796C1495.77 805.796 1496.3 805.796 1496.83 805.796C1497.36 805.796 1497.89 805.796 1498.42 805.796C1498.94 805.796 1499.47 805.796 1500 805.796C1500.52 805.796 1501.05 805.796 1501.57 805.796C1502.1 805.796 1502.62 805.796 1503.15 805.796C1503.67 805.796 1504.19 805.796 1504.72 805.796C1505.24 805.796 1505.76 805.796 1506.28 805.796C1506.8 805.796 1507.32 805.796 1507.84 805.796C1508.36 805.796 1508.88 805.796 1509.4 805.796C1509.92 805.796 1510.43 805.796 1510.95 805.796C1511.47 805.796 1511.98 805.796 1512.5 805.796C1513.02 805.796 1513.53 805.796 1514.04 805.796C1514.56 805.796 1515.07 805.796 1515.58 805.796C1516.1 805.796 1516.61 805.796 1517.12 805.796C1517.63 805.796 1518.14 805.796 1518.65 805.796C1519.16 805.796 1519.67 805.796 1520.18 805.796C1520.69 805.796 1521.2 805.796 1521.71 805.796C1522.21 805.796 1522.72 805.796 1523.23 805.796C1523.73 805.796 1524.24 805.796 1524.74 805.796C1525.25 805.796 1525.75 805.796 1526.26 805.796C1526.76 805.796 1527.26 805.796 1527.76 805.796C1528.27 805.796 1528.77 805.796 1529.27 805.796C1529.77 805.796 1530.27 805.796 1530.77 805.796C1531.27 805.796 1531.77 805.796 1532.27 805.796C1532.76 805.796 1533.26 805.796 1533.76 805.796C1534.26 805.796 1534.75 805.796 1535.25 805.796C1535.74 805.796 1536.24 805.796 1536.73 805.796C1537.23 805.796 1537.72 805.796 1538.21 805.796C1538.71 805.796 1539.2 805.796 1539.69 805.796C1540.18 805.796 1540.67 805.796 1541.16 805.796C1541.65 805.796 1542.14 805.796 1542.63 805.796C1543.12 805.796 1543.61 805.796 1544.1 805.796C1544.58 805.796 1545.07 805.796 1545.56 805.796C1546.04 805.796 1546.53 805.796 1547.01 805.796C1547.5 805.796 1547.98 805.796 1548.47 805.796C1548.95 805.796 1549.43 805.796 1549.91 805.796C1550.4 805.796 1550.88 805.796 1551.36 805.796C1551.84 805.796 1552.32 805.796 1552.8 805.796C1553.28 805.796 1553.76 805.796 1554.24 805.796C1554.72 805.796 1555.19 805.796 1555.67 805.796C1556.15 805.796 1556.62 805.796 1557.1 805.796C1557.58 805.796 1558.05 805.796 1558.52 805.796C1559 805.796 1559.47 805.796 1559.95 805.796C1560.42 805.796 1560.89 805.796 1561.36 805.796C1561.83 805.796 1562.31 805.796 1562.78 805.796C1563.25 805.796 1563.72 805.796 1564.19 805.796C1564.66 805.796 1565.12 805.796 1565.59 805.796C1566.06 805.796 1566.53 805.796 1566.99 805.796C1567.46 805.796 1567.93 805.796 1568.39 805.796C1568.86 805.796 1569.32 805.796 1569.78 805.796C1570.25 805.796 1570.71 805.796 1571.17 805.796C1571.64 805.796 1572.1 805.796 1572.56 805.796C1573.02 805.796 1573.48 805.796 1573.94 805.796C1574.4 805.796 1574.86 805.796 1575.32 805.796C1575.78 805.796 1576.24 805.796 1576.69 805.796C1577.15 805.796 1577.61 805.796 1578.06 805.796C1578.52 805.796 1578.98 805.796 1579.43 805.796C1579.89 805.796 1580.34 805.796 1580.79 805.796C1581.25 805.796 1581.7 805.796 1582.15 805.796C1582.6 805.796 1583.06 805.796 1583.51 805.796C1583.96 805.796 1584.41 805.796 1584.86 805.796C1585.31 805.796 1585.76 805.796 1586.2 805.796C1586.65 805.796 1587.1 805.796 1587.55 805.796C1587.99 805.796 1588.44 805.796 1588.89 805.796C1589.33 805.796 1589.78 805.796 1590.22 805.796C1590.67 805.796 1591.11 805.796 1591.55 805.796C1592 805.796 1592.44 805.796 1592.88 805.796C1593.32 805.796 1593.76 805.796 1594.2 805.796C1594.65 805.796 1595.08 805.796 1595.52 805.796C1595.96 805.796 1596.4 805.796 1596.84 805.796C1597.28 805.796 1597.72 805.796 1598.15 805.796C1598.59 805.796 1599.02 805.796 1599.46 805.796C1599.9 805.796 1600.33 805.796 1600.76 805.796C1601.2 805.796 1601.63 805.796 1602.07 805.796C1602.5 805.796 1602.93 805.796 1603.36 805.796C1603.79 805.796 1604.22 805.796 1604.65 805.796C1605.08 805.796 1605.51 805.796 1605.94 805.796C1606.37 805.796 1606.8 805.796 1607.23 805.796C1607.66 805.796 1608.08 805.796 1608.51 805.796C1608.94 805.796 1609.36 805.796 1609.79 805.796C1610.21 805.796 1610.64 805.796 1611.06 805.796C1611.48 805.796 1611.91 805.796 1612.33 805.796C1612.75 805.796 1613.18 805.796 1613.6 805.796C1614.02 805.796 1614.44 805.796 1614.86 805.796C1615.28 805.796 1615.7 805.796 1616.12 805.796C1616.54 805.796 1616.95 805.796 1617.37 805.796C1617.79 805.796 1618.21 805.796 1618.62 805.796C1619.04 805.796 1619.45 805.796 1619.87 805.796C1620.28 805.796 1620.7 805.796 1621.11 805.796C1621.53 805.796 1621.94 805.796 1622.35 805.796C1622.76 805.796 1623.17 805.796 1623.59 805.796C1624 805.796 1624.41 805.796 1624.82 805.796C1625.23 805.796 1625.64 805.796 1626.05 805.796C1626.45 805.796 1626.86 805.796 1627.27 805.796C1627.68 805.796 1628.08 805.796 1628.49 805.796C1628.9 805.796 1629.3 805.796 1629.71 805.796C1630.11 805.796 1630.51 805.796 1630.92 805.796C1631.32 805.796 1631.72 805.796 1632.13 805.796C1632.53 805.796 1632.93 805.796 1633.33 805.796C1633.73 805.796 1634.13 805.796 1634.53 805.796C1634.93 805.796 1635.33 805.796 1635.73 805.796C1636.13 805.796 1636.53 805.796 1636.92 805.796C1637.32 805.796 1637.72 805.796 1638.11 805.796C1638.51 805.796 1638.91 805.796 1639.3 805.796C1639.69 805.796 1640.09 805.796 1640.48 805.796C1640.88 805.796 1641.27 805.796 1641.66 805.796C1642.05 805.796 1642.44 805.796 1642.84 805.796C1643.23 805.796 1643.62 805.796 1644.01 805.796C1644.4 805.796 1644.79 805.796 1645.17 805.796C1645.56 805.796 1645.95 805.796 1646.34 805.796C1646.72 805.796 1647.11 805.796 1647.5 805.796C1647.88 805.796 1648.27 805.796 1648.65 805.796C1649.04 805.796 1649.42 805.796 1649.81 805.796C1650.19 805.796 1650.57 805.796 1650.95 805.796C1651.34 805.796 1651.72 805.796 1652.1 805.796C1652.48 805.796 1652.86 805.796 1653.24 805.796C1653.62 805.796 1654 805.796 1654.38 805.796C1654.76 805.796 1655.13 805.796 1655.51 805.796C1655.89 805.796 1656.26 805.796 1656.64 805.796C1657.02 805.796 1657.39 805.796 1657.77 805.796C1658.14 805.796 1658.51 805.796 1658.89 805.796C1659.26 805.796 1659.63 805.796 1660.01 805.796C1660.38 805.796 1660.75 805.796 1661.12 805.796C1661.49 805.796 1661.86 805.796 1662.23 805.796C1662.6 805.796 1662.97 805.796 1663.34 805.796C1663.71 805.796 1664.08 805.796 1664.44 805.796C1664.81 805.796 1665.18 805.796 1665.54 805.796C1665.91 805.796 1666.28 805.796 1666.64 805.796C1667 805.796 1667.37 805.796 1667.73 805.796C1668.1 805.796 1668.46 805.796 1668.82 805.796C1669.18 805.796 1669.55 805.796 1669.91 805.796C1670.27 805.796 1670.63 805.796 1670.99 805.796C1671.35 805.796 1671.71 805.796 1672.07 805.796C1672.42 805.796 1672.78 805.796 1673.14 805.796C1673.5 805.796 1673.85 805.796 1674.21 805.796C1674.57 805.796 1674.92 805.796 1675.28 805.796C1675.63 805.796 1675.99 805.796 1676.34 805.796C1676.69 805.796 1677.05 805.796 1677.4 805.796C1677.75 805.796 1678.1 805.796 1678.46 805.796C1678.81 805.796 1679.16 805.796 1679.51 805.796C1679.86 805.796 1680.21 805.796 1680.56 805.796C1680.9 805.796 1681.25 805.796 1681.6 805.796C1681.95 805.796 1682.29 805.796 1682.64 805.796C1682.99 805.796 1683.33 805.796 1683.68 805.796C1684.02 805.796 1684.37 805.796 1684.71 805.796C1685.06 805.796 1685.4 805.796 1685.74 805.796C1686.08 805.796 1686.43 805.796 1686.77 805.796C1687.11 805.796 1687.45 805.796 1687.79 805.796C1688.13 805.796 1688.47 805.796 1688.81 805.796C1689.15 805.796 1689.49 805.796 1689.82 805.796C1690.16 805.796 1690.5 805.796 1690.84 805.796C1691.17 805.796 1691.51 805.796 1691.84 805.796C1692.18 805.796 1692.51 805.796 1692.85 805.796C1693.18 805.796 1693.52 805.796 1693.85 805.796C1694.18 805.796 1694.52 805.796 1694.85 805.796C1695.18 805.796 1695.51 805.796 1695.84 805.796C1696.17 805.796 1696.5 805.796 1696.83 805.796C1697.16 805.796 1697.49 805.796 1697.82 805.796C1698.14 805.796 1698.47 805.796 1698.8 805.796C1699.13 805.796 1699.45 805.796 1699.78 805.796C1700.1 805.796 1700.43 805.796 1700.75 805.796C1701.08 805.796 1701.4 805.796 1701.72 805.796C1702.05 805.796 1702.37 805.796 1702.69 805.796C1703.02 805.796 1703.34 805.796 1703.66 805.796C1703.98 805.796 1704.3 805.796 1704.62 805.796C1704.94 805.796 1705.26 805.796 1705.58 805.796C1705.89 805.796 1706.21 805.796 1706.53 805.796C1706.85 805.796 1707.16 805.796 1707.48 805.796C1707.8 805.796 1708.11 805.796 1708.43 805.796C1708.74 805.796 1709.06 805.796 1709.37 805.796C1709.68 805.796 1710 805.796 1710.31 805.796C1710.62 805.796 1710.93 805.796 1711.24 805.796C1711.55 805.796 1711.87 805.796 1712.18 805.796C1712.49 805.796 1712.8 805.796 1713.1 805.796C1713.41 805.796 1713.72 805.796 1714.03 805.796C1714.34 805.796 1714.64 805.796 1714.95 805.796C1715.26 805.796 1715.56 805.796 1715.87 805.796C1716.17 805.796 1716.48 805.796 1716.78 805.796C1717.09 805.796 1717.39 805.796 1717.69 805.796C1718 805.796 1718.3 805.796 1718.6 805.796C1718.9 805.796 1719.2 805.796 1719.5 805.796C1719.8 805.796 1720.1 805.796 1720.4 805.796C1720.7 805.796 1721 805.796 1721.3 805.796C1721.6 805.796 1721.9 805.796 1722.19 805.796C1722.49 805.796 1722.79 805.796 1723.08 805.796C1723.38 805.796 1723.67 805.796 1723.97 805.796C1724.26 805.796 1724.56 805.796 1724.85 805.796C1725.14 805.796 1725.44 805.796 1725.73 805.796C1726.02 805.796 1726.31 805.796 1726.6 805.796C1726.89 805.796 1727.18 805.796 1727.47 805.796C1727.76 805.796 1728.05 805.796 1728.34 805.796C1728.63 805.796 1728.92 805.796 1729.21 805.796C1729.49 805.796 1729.78 805.796 1730.07 805.796C1730.35 805.796 1730.64 805.796 1730.92 805.796C1731.21 805.796 1731.49 805.796 1731.78 805.796C1732.06 805.796 1732.35 805.796 1732.63 805.796C1732.91 805.796 1733.19 805.796 1733.48 805.796C1733.76 805.796 1734.04 805.796 1734.32 805.796C1734.6 805.796 1734.88 805.796 1735.16 805.796C1735.44 805.796 1735.72 805.796 1735.99 805.796C1736.27 805.796 1736.55 805.796 1736.83 805.796C1737.1 805.796 1737.38 805.796 1737.66 805.796C1737.93 805.796 1738.21 805.796 1738.48 805.796C1738.76 805.796 1739.03 805.796 1739.3 805.796C1739.58 805.796 1739.85 805.796 1740.12 805.796C1740.4 805.796 1740.67 805.796 1740.94 805.796C1741.21 805.796 1741.48 805.796 1741.75 805.796C1742.02 805.796 1742.29 805.796 1742.56 805.796C1742.83 805.796 1743.09 805.796 1743.36 805.796C1743.63 805.796 1743.9 805.796 1744.16 805.796C1744.43 805.796 1744.7 805.796 1744.96 805.796C1745.23 805.796 1745.49 805.796 1745.76 805.796C1746.02 805.796 1746.28 805.796 1746.55 805.796C1746.81 805.796 1747.07 805.796 1747.33 805.796C1747.6 805.796 1747.86 805.796 1748.12 805.796C1748.38 805.796 1748.64 805.796 1748.9 805.796C1749.16 805.796 1749.42 805.796 1749.67 805.796C1749.93 805.796 1750.19 805.796 1750.45 805.796C1750.7 805.796 1750.96 805.796 1751.22 805.796C1751.47 805.796 1751.73 805.796 1751.98 805.796C1752.24 805.796 1752.49 805.796 1752.75 805.796C1753 805.796 1753.25 805.796 1753.51 805.796C1753.76 805.796 1754.01 805.796 1754.26 805.796C1754.51 805.796 1754.76 805.796 1755.01 805.796C1755.27 805.796 1755.51 805.796 1755.76 805.796C1756.01 805.796 1756.26 805.796 1756.51 805.796C1756.76 805.796 1757 805.796 1757.25 805.796C1757.5 805.796 1757.74 805.796 1757.99 805.796C1758.24 805.796 1758.48 805.796 1758.73 805.796C1758.97 805.796 1759.21 805.796 1759.46 805.796C1759.7 805.796 1759.94 805.796 1760.19 805.796C1760.43 805.796 1760.67 805.796 1760.91 805.796C1761.15 805.796 1761.39 805.796 1761.63 805.796C1761.87 805.796 1762.11 805.796 1762.35 805.796C1762.59 805.796 1762.83 805.796 1763.07 805.796C1763.3 805.796 1763.54 805.796 1763.78 805.796C1764.01 805.796 1764.25 805.796 1764.49 805.796C1764.72 805.796 1764.96 805.796 1765.19 805.796C1765.42 805.796 1765.66 805.796 1765.89 805.796C1766.12 805.796 1766.36 805.796 1766.59 805.796C1766.82 805.796 1767.05 805.796 1767.28 805.796C1767.51 805.796 1767.74 805.796 1767.97 805.796C1768.2 805.796 1768.43 805.796 1768.66 805.796C1768.89 805.796 1769.12 805.796 1769.34 805.796C1769.57 805.796 1769.8 805.796 1770.03 805.796C1770.25 805.796 1770.48 805.796 1770.7 805.796C1770.93 805.796 1771.15 805.796 1771.38 805.796C1771.6 805.796 1771.82 805.796 1772.05 805.796C1772.27 805.796 1772.49 805.796 1772.71 805.796C1772.94 805.796 1773.16 805.796 1773.38 805.796C1773.6 805.796 1773.82 805.796 1774.04 805.796C1774.26 805.796 1774.48 805.796 1774.7 805.796C1774.91 805.796 1775.13 805.796 1775.35 805.796C1775.57 805.796 1775.78 805.796 1776 805.796C1776.22 805.796 1776.43 805.796 1776.65 805.796C1776.86 805.796 1777.08 805.796 1777.29 805.796C1777.5 805.796 1777.72 805.796 1777.93 805.796C1778.14 805.796 1778.35 805.796 1778.57 805.796C1778.78 805.796 1778.99 805.796 1779.2 805.796C1779.41 805.796 1779.62 805.796 1779.83 805.796C1780.04 805.796 1780.25 805.796 1780.46 805.796C1780.66 805.796 1780.87 805.796 1781.08 805.796C1781.29 805.796 1781.49 805.796 1781.7 805.796C1781.91 805.796 1782.11 805.796 1782.32 805.796C1782.52 805.796 1782.73 805.796 1782.93 805.796C1783.13 805.796 1783.34 805.796 1783.54 805.796C1783.74 805.796 1783.94 805.796 1784.15 805.796C1784.35 805.796 1784.55 805.796 1784.75 805.796C1784.95 805.796 1785.15 805.796 1785.35 805.796C1785.55 805.796 1785.75 805.796 1785.95 805.796C1786.14 805.796 1786.34 805.796 1786.54 805.796C1786.74 805.796 1786.93 805.796 1787.13 805.796C1787.33 805.796 1787.52 805.796 1787.72 805.796C1787.91 805.796 1788.11 805.796 1788.3 805.796C1788.49 805.796 1788.69 805.796 1788.88 805.796C1789.07 805.796 1789.26 805.796 1789.46 805.796C1789.65 805.796 1789.84 805.796 1790.03 805.796C1790.22 805.796 1790.41 805.796 1790.6 805.796C1790.79 805.796 1790.98 805.796 1791.17 805.796C1791.35 805.796 1791.54 805.796 1791.73 805.796C1791.92 805.796 1792.1 805.796 1792.29 805.796C1792.48 805.796 1792.66 805.796 1792.85 805.796C1793.03 805.796 1793.22 805.796 1793.4 805.796C1793.58 805.796 1793.77 805.796 1793.95 805.796C1794.13 805.796 1794.32 805.796 1794.5 805.796C1794.68 805.796 1794.86 805.796 1795.04 805.796C1795.22 805.796 1795.4 805.796 1795.58 805.796C1795.76 805.796 1795.94 805.796 1796.12 805.796C1796.3 805.796 1796.48 805.796 1796.65 805.796C1796.83 805.796 1797.01 805.796 1797.18 805.796C1797.36 805.796 1797.54 805.796 1797.71 805.796C1797.89 805.796 1798.06 805.796 1798.24 805.796C1798.41 805.796 1798.58 805.796 1798.76 805.796C1798.93 805.796 1799.1 805.796 1799.27 805.796C1799.45 805.796 1799.62 805.796 1799.79 805.796C1799.96 805.796 1800.13 805.796 1800.3 805.796C1800.47 805.796 1800.64 805.796 1800.81 805.796C1800.98 805.796 1801.14 805.796 1801.31 805.796C1801.48 805.796 1801.65 805.796 1801.81 805.796C1801.98 805.796 1802.14 805.796 1802.31 805.796C1802.48 805.796 1802.64 805.796 1802.8 805.796C1802.97 805.796 1803.13 805.796 1803.3 805.796C1803.46 805.796 1803.62 805.796 1803.78 805.796C1803.95 805.796 1804.11 805.796 1804.27 805.796C1804.43 805.796 1804.59 805.796 1804.75 805.796C1804.91 805.796 1805.07 805.796 1805.23 805.796C1805.39 805.796 1805.55 805.796 1805.71 805.796C1805.86 805.796 1806.02 805.796 1806.18 805.796C1806.33 805.796 1806.49 805.796 1806.65 805.796C1806.8 805.796 1806.96 805.796 1807.11 805.796C1807.27 805.796 1807.42 805.796 1807.57 805.796C1807.73 805.796 1807.88 805.796 1808.03 805.796C1808.19 805.796 1808.34 805.796 1808.49 805.796C1808.64 805.796 1808.79 805.796 1808.94 805.796C1809.09 805.796 1809.24 805.796 1809.39 805.796C1809.54 805.796 1809.69 805.796 1809.84 805.796C1809.99 805.796 1810.13 805.796 1810.28 805.796C1810.43 805.796 1810.58 805.796 1810.72 805.796C1810.87 805.796 1811.01 805.796 1811.16 805.796C1811.3 805.796 1811.45 805.796 1811.59 805.796C1811.74 805.796 1811.88 805.796 1812.02 805.796C1812.16 805.796 1812.31 805.796 1812.45 805.796C1812.59 805.796 1812.73 805.796 1812.87 805.796C1813.01 805.796 1813.15 805.796 1813.29 805.796C1813.43 805.796 1813.57 805.796 1813.71 805.796C1813.85 805.796 1813.99 805.796 1814.13 805.796C1814.26 805.796 1814.4 805.796 1814.54 805.796C1814.67 805.796 1814.81 805.796 1814.95 805.796C1815.08 805.796 1815.22 805.796 1815.35 805.796C1815.48 805.796 1815.62 805.796 1815.75 805.796C1815.89 805.796 1816.02 805.796 1816.15 805.796C1816.28 805.796 1816.41 805.796 1816.55 805.796C1816.68 805.796 1816.81 805.796 1816.94 805.796C1817.07 805.796 1817.2 805.796 1817.33 805.796C1817.46 805.796 1817.59 805.796 1817.71 805.796C1817.84 805.796 1817.97 805.796 1818.1 805.796C1818.22 805.796 1818.35 805.796 1818.48 805.796C1818.6 805.796 1818.73 805.796 1818.85 805.796C1818.98 805.796 1819.1 805.796 1819.23 805.796C1819.35 805.796 1819.47 805.796 1819.6 805.796C1819.72 805.796 1819.84 805.796 1819.96 805.796C1820.08 805.796 1820.21 805.796 1820.33 805.796C1820.45 805.796 1820.57 805.796 1820.69 805.796C1820.81 805.796 1820.93 805.796 1821.05 805.796C1821.16 805.796 1821.28 805.796 1821.4 805.796C1821.52 805.796 1821.63 805.796 1821.75 805.796C1821.87 805.796 1821.98 805.796 1822.1 805.796C1822.22 805.796 1822.33 805.796 1822.44 805.796C1822.56 805.796 1822.67 805.796 1822.79 805.796C1822.9 805.796 1823.01 805.796 1823.13 805.796C1823.24 805.796 1823.35 805.796 1823.46 805.796C1823.57 805.796 1823.68 805.796 1823.79 805.796C1823.9 805.796 1824.01 805.796 1824.12 805.796C1824.23 805.796 1824.34 805.796 1824.45 805.796C1824.56 805.796 1824.67 805.796 1824.77 805.796C1824.88 805.796 1824.99 805.796 1825.09 805.796C1825.2 805.796 1825.31 805.796 1825.41 805.796C1825.52 805.796 1825.62 805.796 1825.73 805.796C1825.83 805.796 1825.93 805.796 1826.04 805.796C1826.14 805.796 1826.24 805.796 1826.34 805.796C1826.45 805.796 1826.55 805.796 1826.65 805.796C1826.75 805.796 1826.85 805.796 1826.95 805.796C1827.05 805.796 1827.15 805.796 1827.25 805.796C1827.35 805.796 1827.45 805.796 1827.55 805.796C1827.64 805.796 1827.74 805.796 1827.84 805.796C1827.93 805.796 1828.03 805.796 1828.13 805.796C1828.22 805.796 1828.32 805.796 1828.41 805.796C1828.51 805.796 1828.6 805.796 1828.7 805.796C1828.79 805.796 1828.88 805.796 1828.98 805.796C1829.07 805.796 1829.16 805.796 1829.25 805.796C1829.35 805.796 1829.44 805.796 1829.53 805.796C1829.62 805.796 1829.71 805.796 1829.8 805.796C1829.89 805.796 1829.98 805.796 1830.07 805.796C1830.16 805.796 1830.25 805.796 1830.33 805.796C1830.42 805.796 1830.51 805.796 1830.59 805.796C1830.68 805.796 1830.77 805.796 1830.85 805.796C1830.94 805.796 1831.02 805.796 1831.11 805.796C1831.19 805.796 1831.28 805.796 1831.36 805.796C1831.45 805.796 1831.53 805.796 1831.61 805.796C1831.69 805.796 1831.78 805.796 1831.86 805.796C1831.94 805.796 1832.02 805.796 1832.1 805.796C1832.18 805.796 1832.26 805.796 1832.34 805.796C1832.42 805.796 1832.5 805.796 1832.58 805.796C1832.66 805.796 1832.74 805.796 1832.82 805.796C1832.89 805.796 1832.97 805.796 1833.05 805.796C1833.12 805.796 1833.2 805.796 1833.28 805.796C1833.35 805.796 1833.43 805.796 1833.5 805.796C1833.58 805.796 1833.65 805.796 1833.72 805.796C1833.8 805.796 1833.87 805.796 1833.94 805.796C1834.02 805.796 1834.09 805.796 1834.16 805.796C1834.23 805.796 1834.3 805.796 1834.37 805.796C1834.44 805.796 1834.51 805.796 1834.58 805.796C1834.65 805.796 1834.72 805.796 1834.79 805.796C1834.86 805.796 1834.93 805.796 1835 805.796C1835.06 805.796 1835.13 805.796 1835.2 805.796C1835.26 805.796 1835.33 805.796 1835.4 805.796C1835.46 805.796 1835.53 805.796 1835.59 805.796C1835.66 805.796 1835.72 805.796 1835.78 805.796C1835.85 805.796 1835.91 805.796 1835.97 805.796C1836.04 805.796 1836.1 805.796 1836.16 805.796C1836.22 805.796 1836.28 805.796 1836.34 805.796C1836.4 805.796 1836.47 805.796 1836.52 805.796C1836.58 805.796 1836.64 805.796 1836.7 805.796C1836.76 805.796 1836.82 805.796 1836.88 805.796C1836.93 805.796 1836.99 805.796 1837.05 805.796C1837.11 805.796 1837.16 805.796 1837.22 805.796C1837.27 805.796 1837.33 805.796 1837.38 805.796C1837.44 805.796 1837.49 805.796 1837.55 805.796C1837.6 805.796 1837.65 805.796 1837.71 805.796C1837.76 805.796 1837.81 805.796 1837.86 805.796C1837.92 805.796 1837.97 805.796 1838.02 805.796C1838.07 805.796 1838.12 805.796 1838.17 805.796C1838.22 805.796 1838.27 805.796 1838.32 805.796C1838.37 805.796 1838.41 805.796 1838.46 805.796C1838.51 805.796 1838.56 805.796 1838.6 805.796C1838.65 805.796 1838.7 805.796 1838.74 805.796C1838.79 805.796 1838.83 805.796 1838.88 805.796C1838.92 805.796 1838.97 805.796 1839.01 805.796C1839.06 805.796 1839.1 805.796 1839.14 805.796C1839.19 805.796 1839.23 805.796 1839.27 805.796C1839.31 805.796 1839.35 805.796 1839.4 805.796C1839.44 805.796 1839.48 805.796 1839.52 805.796C1839.56 805.796 1839.6 805.796 1839.64 805.796C1839.67 805.796 1839.71 805.796 1839.75 805.796C1839.79 805.796 1839.83 805.796 1839.86 805.796C1839.9 805.796 1839.94 805.796 1839.97 805.796C1840.01 805.796 1840.05 805.796 1840.08 805.796C1840.12 805.796 1840.15 805.796 1840.19 805.796C1840.22 805.796 1840.25 805.796 1840.29 805.796C1840.32 805.796 1840.35 805.796 1840.39 805.796C1840.42 805.796 1840.45 805.796 1840.48 805.796C1840.51 805.796 1840.54 805.796 1840.57 805.796C1840.6 805.796 1840.63 805.796 1840.66 805.796C1840.69 805.796 1840.72 805.796 1840.75 805.796C1840.78 805.796 1840.81 805.796 1840.83 805.796C1840.86 805.796 1840.89 805.796 1840.92 805.796C1840.94 805.796 1840.97 805.796 1840.99 805.796C1841.02 805.796 1841.04 805.796 1841.07 805.796C1841.09 805.796 1841.12 805.796 1841.14 805.796C1841.17 805.796 1841.19 805.796 1841.21 805.796C1841.23 805.796 1841.26 805.796 1841.28 805.796C1841.3 805.796 1841.32 805.796 1841.34 805.796C1841.36 805.796 1841.38 805.796 1841.4 805.796C1841.42 805.796 1841.44 805.796 1841.46 805.796C1841.48 805.796 1841.5 805.796 1841.52 805.796C1841.53 805.796 1841.55 805.796 1841.57 805.796C1841.59 805.796 1841.6 805.796 1841.62 805.796C1841.63 805.796 1841.65 805.796 1841.66 805.796C1841.68 805.796 1841.69 805.796 1841.71 805.796C1841.72 805.796 1841.74 805.796 1841.75 805.796C1841.76 805.796 1841.78 805.796 1841.79 805.796C1841.8 805.796 1841.81 805.796 1841.82 805.796C1841.83 805.796 1841.84 805.796 1841.86 805.796C1841.87 805.796 1841.88 805.796 1841.88 805.796C1841.89 805.796 1841.9 805.796 1841.91 805.796C1841.92 805.796 1841.93 805.796 1841.94 805.796C1841.94 805.796 1841.95 805.796 1841.96 805.796C1841.96 805.796 1841.97 805.796 1841.98 805.796C1841.98 805.796 1841.99 805.796 1841.99 805.796C1842 805.796 1842 805.796 1842 805.796C1842.01 805.796 1842.01 805.796 1842.01 805.796C1842.02 805.796 1842.02 805.796 1842.02 805.796C1842.02 805.796 1842.02 805.796 1842.02 805.796C1842.03 805.796 1842.03 805.796 1842.03 763.796C1842.03 721.796 1842.03 721.796 1842.02 721.796C1842.02 721.796 1842.02 721.796 1842.02 721.796C1842.02 721.796 1842.02 721.796 1842.01 721.796C1842.01 721.796 1842.01 721.796 1842 721.796C1842 721.796 1842 721.796 1841.99 721.796C1841.99 721.796 1841.98 721.796 1841.98 721.796C1841.97 721.796 1841.96 721.796 1841.96 721.796C1841.95 721.796 1841.94 721.796 1841.94 721.796C1841.93 721.796 1841.92 721.796 1841.91 721.796C1841.9 721.796 1841.89 721.796 1841.88 721.796C1841.88 721.796 1841.87 721.796 1841.86 721.796C1841.84 721.796 1841.83 721.796 1841.82 721.796C1841.81 721.796 1841.8 721.796 1841.79 721.796C1841.78 721.796 1841.76 721.796 1841.75 721.796C1841.74 721.796 1841.72 721.796 1841.71 721.796C1841.69 721.796 1841.68 721.796 1841.66 721.796C1841.65 721.796 1841.63 721.796 1841.62 721.796C1841.6 721.796 1841.59 721.796 1841.57 721.796C1841.55 721.796 1841.53 721.796 1841.52 721.796C1841.5 721.796 1841.48 721.796 1841.46 721.796C1841.44 721.796 1841.42 721.796 1841.4 721.796C1841.38 721.796 1841.36 721.796 1841.34 721.796C1841.32 721.796 1841.3 721.796 1841.28 721.796C1841.26 721.796 1841.23 721.796 1841.21 721.796C1841.19 721.796 1841.17 721.796 1841.14 721.796C1841.12 721.796 1841.09 721.796 1841.07 721.796C1841.04 721.796 1841.02 721.796 1840.99 721.796C1840.97 721.796 1840.94 721.796 1840.92 721.796C1840.89 721.796 1840.86 721.796 1840.83 721.796C1840.81 721.796 1840.78 721.796 1840.75 721.796C1840.72 721.796 1840.69 721.796 1840.66 721.796C1840.63 721.796 1840.6 721.796 1840.57 721.796C1840.54 721.796 1840.51 721.796 1840.48 721.796C1840.45 721.796 1840.42 721.796 1840.39 721.796C1840.35 721.796 1840.32 721.796 1840.29 721.796C1840.25 721.796 1840.22 721.796 1840.19 721.796C1840.15 721.796 1840.12 721.796 1840.08 721.796C1840.05 721.796 1840.01 721.796 1839.97 721.796C1839.94 721.796 1839.9 721.796 1839.86 721.796C1839.83 721.796 1839.79 721.796 1839.75 721.796C1839.71 721.796 1839.67 721.796 1839.64 721.796C1839.6 721.796 1839.56 721.796 1839.52 721.796C1839.48 721.796 1839.44 721.796 1839.4 721.796C1839.35 721.796 1839.31 721.796 1839.27 721.796C1839.23 721.796 1839.19 721.796 1839.14 721.796C1839.1 721.796 1839.06 721.796 1839.01 721.796C1838.97 721.796 1838.92 721.796 1838.88 721.796C1838.83 721.796 1838.79 721.796 1838.74 721.796C1838.7 721.796 1838.65 721.796 1838.6 721.796C1838.56 721.796 1838.51 721.796 1838.46 721.796C1838.41 721.796 1838.37 721.796 1838.32 721.796C1838.27 721.796 1838.22 721.796 1838.17 721.796C1838.12 721.796 1838.07 721.796 1838.02 721.796C1837.97 721.796 1837.92 721.796 1837.86 721.796C1837.81 721.796 1837.76 721.796 1837.71 721.796C1837.65 721.796 1837.6 721.796 1837.55 721.796C1837.49 721.796 1837.44 721.796 1837.38 721.796C1837.33 721.796 1837.27 721.796 1837.22 721.796C1837.16 721.796 1837.11 721.796 1837.05 721.796C1836.99 721.796 1836.93 721.796 1836.88 721.796C1836.82 721.796 1836.76 721.796 1836.7 721.796C1836.64 721.796 1836.58 721.796 1836.52 721.796C1836.47 721.796 1836.4 721.796 1836.34 721.796C1836.28 721.796 1836.22 721.796 1836.16 721.796C1836.1 721.796 1836.04 721.796 1835.97 721.796C1835.91 721.796 1835.85 721.796 1835.78 721.796C1835.72 721.796 1835.66 721.796 1835.59 721.796C1835.53 721.796 1835.46 721.796 1835.4 721.796C1835.33 721.796 1835.26 721.796 1835.2 721.796C1835.13 721.796 1835.06 721.796 1835 721.796C1834.93 721.796 1834.86 721.796 1834.79 721.796C1834.72 721.796 1834.65 721.796 1834.58 721.796C1834.51 721.796 1834.44 721.796 1834.37 721.796C1834.3 721.796 1834.23 721.796 1834.16 721.796C1834.09 721.796 1834.02 721.796 1833.94 721.796C1833.87 721.796 1833.8 721.796 1833.72 721.796C1833.65 721.796 1833.58 721.796 1833.5 721.796C1833.43 721.796 1833.35 721.796 1833.28 721.796C1833.2 721.796 1833.12 721.796 1833.05 721.796C1832.97 721.796 1832.89 721.796 1832.82 721.796C1832.74 721.796 1832.66 721.796 1832.58 721.796C1832.5 721.796 1832.42 721.796 1832.34 721.796C1832.26 721.796 1832.18 721.796 1832.1 721.796C1832.02 721.796 1831.94 721.796 1831.86 721.796C1831.78 721.796 1831.69 721.796 1831.61 721.796C1831.53 721.796 1831.45 721.796 1831.36 721.796C1831.28 721.796 1831.19 721.796 1831.11 721.796C1831.02 721.796 1830.94 721.796 1830.85 721.796C1830.77 721.796 1830.68 721.796 1830.59 721.796C1830.51 721.796 1830.42 721.796 1830.33 721.796C1830.25 721.796 1830.16 721.796 1830.07 721.796C1829.98 721.796 1829.89 721.796 1829.8 721.796C1829.71 721.796 1829.62 721.796 1829.53 721.796C1829.44 721.796 1829.35 721.796 1829.25 721.796C1829.16 721.796 1829.07 721.796 1828.98 721.796C1828.88 721.796 1828.79 721.796 1828.7 721.796C1828.6 721.796 1828.51 721.796 1828.41 721.796C1828.32 721.796 1828.22 721.796 1828.13 721.796C1828.03 721.796 1827.93 721.796 1827.84 721.796C1827.74 721.796 1827.64 721.796 1827.55 721.796C1827.45 721.796 1827.35 721.796 1827.25 721.796C1827.15 721.796 1827.05 721.796 1826.95 721.796C1826.85 721.796 1826.75 721.796 1826.65 721.796C1826.55 721.796 1826.45 721.796 1826.34 721.796C1826.24 721.796 1826.14 721.796 1826.04 721.796C1825.93 721.796 1825.83 721.796 1825.73 721.796C1825.62 721.796 1825.52 721.796 1825.41 721.796C1825.31 721.796 1825.2 721.796 1825.09 721.796C1824.99 721.796 1824.88 721.796 1824.77 721.796C1824.67 721.796 1824.56 721.796 1824.45 721.796C1824.34 721.796 1824.23 721.796 1824.12 721.796C1824.01 721.796 1823.9 721.796 1823.79 721.796C1823.68 721.796 1823.57 721.796 1823.46 721.796C1823.35 721.796 1823.24 721.796 1823.13 721.796C1823.01 721.796 1822.9 721.796 1822.79 721.796C1822.67 721.796 1822.56 721.796 1822.44 721.796C1822.33 721.796 1822.22 721.796 1822.1 721.796C1821.98 721.796 1821.87 721.796 1821.75 721.796C1821.63 721.796 1821.52 721.796 1821.4 721.796C1821.28 721.796 1821.16 721.796 1821.05 721.796C1820.93 721.796 1820.81 721.796 1820.69 721.796C1820.57 721.796 1820.45 721.796 1820.33 721.796C1820.21 721.796 1820.08 721.796 1819.96 721.796C1819.84 721.796 1819.72 721.796 1819.6 721.796C1819.47 721.796 1819.35 721.796 1819.23 721.796C1819.1 721.796 1818.98 721.796 1818.85 721.796C1818.73 721.796 1818.6 721.796 1818.48 721.796C1818.35 721.796 1818.22 721.796 1818.1 721.796C1817.97 721.796 1817.84 721.796 1817.71 721.796C1817.59 721.796 1817.46 721.796 1817.33 721.796C1817.2 721.796 1817.07 721.796 1816.94 721.796C1816.81 721.796 1816.68 721.796 1816.55 721.796C1816.41 721.796 1816.28 721.796 1816.15 721.796C1816.02 721.796 1815.89 721.796 1815.75 721.796C1815.62 721.796 1815.48 721.796 1815.35 721.796C1815.22 721.796 1815.08 721.796 1814.95 721.796C1814.81 721.796 1814.67 721.796 1814.54 721.796C1814.4 721.796 1814.26 721.796 1814.13 721.796C1813.99 721.796 1813.85 721.796 1813.71 721.796C1813.57 721.796 1813.43 721.796 1813.29 721.796C1813.15 721.796 1813.01 721.796 1812.87 721.796C1812.73 721.796 1812.59 721.796 1812.45 721.796C1812.31 721.796 1812.16 721.796 1812.02 721.796C1811.88 721.796 1811.74 721.796 1811.59 721.796C1811.45 721.796 1811.3 721.796 1811.16 721.796C1811.01 721.796 1810.87 721.796 1810.72 721.796C1810.58 721.796 1810.43 721.796 1810.28 721.796C1810.13 721.796 1809.99 721.796 1809.84 721.796C1809.69 721.796 1809.54 721.796 1809.39 721.796C1809.24 721.796 1809.09 721.796 1808.94 721.796C1808.79 721.796 1808.64 721.796 1808.49 721.796C1808.34 721.796 1808.19 721.796 1808.03 721.796C1807.88 721.796 1807.73 721.796 1807.57 721.796C1807.42 721.796 1807.27 721.796 1807.11 721.796C1806.96 721.796 1806.8 721.796 1806.65 721.796C1806.49 721.796 1806.33 721.796 1806.18 721.796C1806.02 721.796 1805.86 721.796 1805.71 721.796C1805.55 721.796 1805.39 721.796 1805.23 721.796C1805.07 721.796 1804.91 721.796 1804.75 721.796C1804.59 721.796 1804.43 721.796 1804.27 721.796C1804.11 721.796 1803.95 721.796 1803.78 721.796C1803.62 721.796 1803.46 721.796 1803.3 721.796C1803.13 721.796 1802.97 721.796 1802.8 721.796C1802.64 721.796 1802.48 721.796 1802.31 721.796C1802.14 721.796 1801.98 721.796 1801.81 721.796C1801.65 721.796 1801.48 721.796 1801.31 721.796C1801.14 721.796 1800.98 721.796 1800.81 721.796C1800.64 721.796 1800.47 721.796 1800.3 721.796C1800.13 721.796 1799.96 721.796 1799.79 721.796C1799.62 721.796 1799.45 721.796 1799.27 721.796C1799.1 721.796 1798.93 721.796 1798.76 721.796C1798.58 721.796 1798.41 721.796 1798.24 721.796C1798.06 721.796 1797.89 721.796 1797.71 721.796C1797.54 721.796 1797.36 721.796 1797.18 721.796C1797.01 721.796 1796.83 721.796 1796.65 721.796C1796.48 721.796 1796.3 721.796 1796.12 721.796C1795.94 721.796 1795.76 721.796 1795.58 721.796C1795.4 721.796 1795.22 721.796 1795.04 721.796C1794.86 721.796 1794.68 721.796 1794.5 721.796C1794.32 721.796 1794.13 721.796 1793.95 721.796C1793.77 721.796 1793.58 721.796 1793.4 721.796C1793.22 721.796 1793.03 721.796 1792.85 721.796C1792.66 721.796 1792.48 721.796 1792.29 721.796C1792.1 721.796 1791.92 721.796 1791.73 721.796C1791.54 721.796 1791.35 721.796 1791.17 721.796C1790.98 721.796 1790.79 721.796 1790.6 721.796C1790.41 721.796 1790.22 721.796 1790.03 721.796C1789.84 721.796 1789.65 721.796 1789.46 721.796C1789.26 721.796 1789.07 721.796 1788.88 721.796C1788.69 721.796 1788.49 721.796 1788.3 721.796C1788.11 721.796 1787.91 721.796 1787.72 721.796C1787.52 721.796 1787.33 721.796 1787.13 721.796C1786.93 721.796 1786.74 721.796 1786.54 721.796C1786.34 721.796 1786.14 721.796 1785.95 721.796C1785.75 721.796 1785.55 721.796 1785.35 721.796C1785.15 721.796 1784.95 721.796 1784.75 721.796C1784.55 721.796 1784.35 721.796 1784.15 721.796C1783.94 721.796 1783.74 721.796 1783.54 721.796C1783.34 721.796 1783.13 721.796 1782.93 721.796C1782.73 721.796 1782.52 721.796 1782.32 721.796C1782.11 721.796 1781.91 721.796 1781.7 721.796C1781.49 721.796 1781.29 721.796 1781.08 721.796C1780.87 721.796 1780.66 721.796 1780.46 721.796C1780.25 721.796 1780.04 721.796 1779.83 721.796C1779.62 721.796 1779.41 721.796 1779.2 721.796C1778.99 721.796 1778.78 721.796 1778.57 721.796C1778.35 721.796 1778.14 721.796 1777.93 721.796C1777.72 721.796 1777.5 721.796 1777.29 721.796C1777.08 721.796 1776.86 721.796 1776.65 721.796C1776.43 721.796 1776.22 721.796 1776 721.796C1775.78 721.796 1775.57 721.796 1775.35 721.796C1775.13 721.796 1774.91 721.796 1774.7 721.796C1774.48 721.796 1774.26 721.796 1774.04 721.796C1773.82 721.796 1773.6 721.796 1773.38 721.796C1773.16 721.796 1772.94 721.796 1772.71 721.796C1772.49 721.796 1772.27 721.796 1772.05 721.796C1771.82 721.796 1771.6 721.796 1771.38 721.796C1771.15 721.796 1770.93 721.796 1770.7 721.796C1770.48 721.796 1770.25 721.796 1770.03 721.796C1769.8 721.796 1769.57 721.796 1769.34 721.796C1769.12 721.796 1768.89 721.796 1768.66 721.796C1768.43 721.796 1768.2 721.796 1767.97 721.796C1767.74 721.796 1767.51 721.796 1767.28 721.796C1767.05 721.796 1766.82 721.796 1766.59 721.796C1766.36 721.796 1766.12 721.796 1765.89 721.796C1765.66 721.796 1765.42 721.796 1765.19 721.796C1764.96 721.796 1764.72 721.796 1764.49 721.796C1764.25 721.796 1764.01 721.796 1763.78 721.796C1763.54 721.796 1763.3 721.796 1763.07 721.796C1762.83 721.796 1762.59 721.796 1762.35 721.796C1762.11 721.796 1761.87 721.796 1761.63 721.796C1761.39 721.796 1761.15 721.796 1760.91 721.796C1760.67 721.796 1760.43 721.796 1760.19 721.796C1759.94 721.796 1759.7 721.796 1759.46 721.796C1759.21 721.796 1758.97 721.796 1758.73 721.796C1758.48 721.796 1758.24 721.796 1757.99 721.796C1757.74 721.796 1757.5 721.796 1757.25 721.796C1757 721.796 1756.76 721.796 1756.51 721.796C1756.26 721.796 1756.01 721.796 1755.76 721.796C1755.51 721.796 1755.27 721.796 1755.01 721.796C1754.76 721.796 1754.51 721.796 1754.26 721.796C1754.01 721.796 1753.76 721.796 1753.51 721.796C1753.25 721.796 1753 721.796 1752.75 721.796C1752.49 721.796 1752.24 721.796 1751.98 721.796C1751.73 721.796 1751.47 721.796 1751.22 721.796C1750.96 721.796 1750.7 721.796 1750.45 721.796C1750.19 721.796 1749.93 721.796 1749.67 721.796C1749.42 721.796 1749.16 721.796 1748.9 721.796C1748.64 721.796 1748.38 721.796 1748.12 721.796C1747.86 721.796 1747.6 721.796 1747.33 721.796C1747.07 721.796 1746.81 721.796 1746.55 721.796C1746.28 721.796 1746.02 721.796 1745.76 721.796C1745.49 721.796 1745.23 721.796 1744.96 721.796C1744.7 721.796 1744.43 721.796 1744.16 721.796C1743.9 721.796 1743.63 721.796 1743.36 721.796C1743.09 721.796 1742.83 721.796 1742.56 721.796C1742.29 721.796 1742.02 721.796 1741.75 721.796C1741.48 721.796 1741.21 721.796 1740.94 721.796C1740.67 721.796 1740.4 721.796 1740.12 721.796C1739.85 721.796 1739.58 721.796 1739.3 721.796C1739.03 721.796 1738.76 721.796 1738.48 721.796C1738.21 721.796 1737.93 721.796 1737.66 721.796C1737.38 721.796 1737.1 721.796 1736.83 721.796C1736.55 721.796 1736.27 721.796 1735.99 721.796C1735.72 721.796 1735.44 721.796 1735.16 721.796C1734.88 721.796 1734.6 721.796 1734.32 721.796C1734.04 721.796 1733.76 721.796 1733.48 721.796C1733.19 721.796 1732.91 721.796 1732.63 721.796C1732.35 721.796 1732.06 721.796 1731.78 721.796C1731.49 721.796 1731.21 721.796 1730.92 721.796C1730.64 721.796 1730.35 721.796 1730.07 721.796C1729.78 721.796 1729.49 721.796 1729.21 721.796C1728.92 721.796 1728.63 721.796 1728.34 721.796C1728.05 721.796 1727.76 721.796 1727.47 721.796C1727.18 721.796 1726.89 721.796 1726.6 721.796C1726.31 721.796 1726.02 721.796 1725.73 721.796C1725.44 721.796 1725.14 721.796 1724.85 721.796C1724.56 721.796 1724.26 721.796 1723.97 721.796C1723.67 721.796 1723.38 721.796 1723.08 721.796C1722.79 721.796 1722.49 721.796 1722.19 721.796C1721.9 721.796 1721.6 721.796 1721.3 721.796C1721 721.796 1720.7 721.796 1720.4 721.796C1720.1 721.796 1719.8 721.796 1719.5 721.796C1719.2 721.796 1718.9 721.796 1718.6 721.796C1718.3 721.796 1718 721.796 1717.69 721.796C1717.39 721.796 1717.09 721.796 1716.78 721.796C1716.48 721.796 1716.17 721.796 1715.87 721.796C1715.56 721.796 1715.26 721.796 1714.95 721.796C1714.64 721.796 1714.34 721.796 1714.03 721.796C1713.72 721.796 1713.41 721.796 1713.1 721.796C1712.8 721.796 1712.49 721.796 1712.18 721.796C1711.87 721.796 1711.55 721.796 1711.24 721.796C1710.93 721.796 1710.62 721.796 1710.31 721.796C1710 721.796 1709.68 721.796 1709.37 721.796C1709.06 721.796 1708.74 721.796 1708.43 721.796C1708.11 721.796 1707.8 721.796 1707.48 721.796C1707.16 721.796 1706.85 721.796 1706.53 721.796C1706.21 721.796 1705.89 721.796 1705.58 721.796C1705.26 721.796 1704.94 721.796 1704.62 721.796C1704.3 721.796 1703.98 721.796 1703.66 721.796C1703.34 721.796 1703.02 721.796 1702.69 721.796C1702.37 721.796 1702.05 721.796 1701.72 721.796C1701.4 721.796 1701.08 721.796 1700.75 721.796C1700.43 721.796 1700.1 721.796 1699.78 721.796C1699.45 721.796 1699.13 721.796 1698.8 721.796C1698.47 721.796 1698.14 721.796 1697.82 721.796C1697.49 721.796 1697.16 721.796 1696.83 721.796C1696.5 721.796 1696.17 721.796 1695.84 721.796C1695.51 721.796 1695.18 721.796 1694.85 721.796C1694.52 721.796 1694.18 721.796 1693.85 721.796C1693.52 721.796 1693.18 721.796 1692.85 721.796C1692.51 721.796 1692.18 721.796 1691.84 721.796C1691.51 721.796 1691.17 721.796 1690.84 721.796C1690.5 721.796 1690.16 721.796 1689.82 721.796C1689.49 721.796 1689.15 721.796 1688.81 721.796C1688.47 721.796 1688.13 721.796 1687.79 721.796C1687.45 721.796 1687.11 721.796 1686.77 721.796C1686.43 721.796 1686.08 721.796 1685.74 721.796C1685.4 721.796 1685.06 721.796 1684.71 721.796C1684.37 721.796 1684.02 721.796 1683.68 721.796C1683.33 721.796 1682.99 721.796 1682.64 721.796C1682.29 721.796 1681.95 721.796 1681.6 721.796C1681.25 721.796 1680.9 721.796 1680.56 721.796C1680.21 721.796 1679.86 721.796 1679.51 721.796C1679.16 721.796 1678.81 721.796 1678.46 721.796C1678.1 721.796 1677.75 721.796 1677.4 721.796C1677.05 721.796 1676.69 721.796 1676.34 721.796C1675.99 721.796 1675.63 721.796 1675.28 721.796C1674.92 721.796 1674.57 721.796 1674.21 721.796C1673.85 721.796 1673.5 721.796 1673.14 721.796C1672.78 721.796 1672.42 721.796 1672.07 721.796C1671.71 721.796 1671.35 721.796 1670.99 721.796C1670.63 721.796 1670.27 721.796 1669.91 721.796C1669.55 721.796 1669.18 721.796 1668.82 721.796C1668.46 721.796 1668.1 721.796 1667.73 721.796C1667.37 721.796 1667 721.796 1666.64 721.796C1666.28 721.796 1665.91 721.796 1665.54 721.796C1665.18 721.796 1664.81 721.796 1664.44 721.796C1664.08 721.796 1663.71 721.796 1663.34 721.796C1662.97 721.796 1662.6 721.796 1662.23 721.796C1661.86 721.796 1661.49 721.796 1661.12 721.796C1660.75 721.796 1660.38 721.796 1660.01 721.796C1659.63 721.796 1659.26 721.796 1658.89 721.796C1658.51 721.796 1658.14 721.796 1657.77 721.796C1657.39 721.796 1657.02 721.796 1656.64 721.796C1656.26 721.796 1655.89 721.796 1655.51 721.796C1655.13 721.796 1654.76 721.796 1654.38 721.796C1654 721.796 1653.62 721.796 1653.24 721.796C1652.86 721.796 1652.48 721.796 1652.1 721.796C1651.72 721.796 1651.34 721.796 1650.95 721.796C1650.57 721.796 1650.19 721.796 1649.81 721.796C1649.42 721.796 1649.04 721.796 1648.65 721.796C1648.27 721.796 1647.88 721.796 1647.5 721.796C1647.11 721.796 1646.72 721.796 1646.34 721.796C1645.95 721.796 1645.56 721.796 1645.17 721.796C1644.79 721.796 1644.4 721.796 1644.01 721.796C1643.62 721.796 1643.23 721.796 1642.84 721.796C1642.44 721.796 1642.05 721.796 1641.66 721.796C1641.27 721.796 1640.88 721.796 1640.48 721.796C1640.09 721.796 1639.69 721.796 1639.3 721.796C1638.91 721.796 1638.51 721.796 1638.11 721.796C1637.72 721.796 1637.32 721.796 1636.92 721.796C1636.53 721.796 1636.13 721.796 1635.73 721.796C1635.33 721.796 1634.93 721.796 1634.53 721.796C1634.13 721.796 1633.73 721.796 1633.33 721.796C1632.93 721.796 1632.53 721.796 1632.13 721.796C1631.72 721.796 1631.32 721.796 1630.92 721.796C1630.51 721.796 1630.11 721.796 1629.71 721.796C1629.3 721.796 1628.9 721.796 1628.49 721.796C1628.08 721.796 1627.68 721.796 1627.27 721.796C1626.86 721.796 1626.45 721.796 1626.05 721.796C1625.64 721.796 1625.23 721.796 1624.82 721.796C1624.41 721.796 1624 721.796 1623.59 721.796C1623.17 721.796 1622.76 721.796 1622.35 721.796C1621.94 721.796 1621.53 721.796 1621.11 721.796C1620.7 721.796 1620.28 721.796 1619.87 721.796C1619.45 721.796 1619.04 721.796 1618.62 721.796C1618.21 721.796 1617.79 721.796 1617.37 721.796C1616.95 721.796 1616.54 721.796 1616.12 721.796C1615.7 721.796 1615.28 721.796 1614.86 721.796C1614.44 721.796 1614.02 721.796 1613.6 721.796C1613.18 721.796 1612.75 721.796 1612.33 721.796C1611.91 721.796 1611.48 721.796 1611.06 721.796C1610.64 721.796 1610.21 721.796 1609.79 721.796C1609.36 721.796 1608.94 721.796 1608.51 721.796C1608.08 721.796 1607.66 721.796 1607.23 721.796C1606.8 721.796 1606.37 721.796 1605.94 721.796C1605.51 721.796 1605.08 721.796 1604.65 721.796C1604.22 721.796 1603.79 721.796 1603.36 721.796C1602.93 721.796 1602.5 721.796 1602.07 721.796C1601.63 721.796 1601.2 721.796 1600.76 721.796C1600.33 721.796 1599.9 721.796 1599.46 721.796C1599.02 721.796 1598.59 721.796 1598.15 721.796C1597.72 721.796 1597.28 721.796 1596.84 721.796C1596.4 721.796 1595.96 721.796 1595.52 721.796C1595.08 721.796 1594.65 721.796 1594.2 721.796C1593.76 721.796 1593.32 721.796 1592.88 721.796C1592.44 721.796 1592 721.796 1591.55 721.796C1591.11 721.796 1590.67 721.796 1590.22 721.796C1589.78 721.796 1589.33 721.796 1588.89 721.796C1588.44 721.796 1587.99 721.796 1587.55 721.796C1587.1 721.796 1586.65 721.796 1586.2 721.796C1585.76 721.796 1585.31 721.796 1584.86 721.796C1584.41 721.796 1583.96 721.796 1583.51 721.796C1583.06 721.796 1582.6 721.796 1582.15 721.796C1581.7 721.796 1581.25 721.796 1580.79 721.796C1580.34 721.796 1579.89 721.796 1579.43 721.796C1578.98 721.796 1578.52 721.796 1578.06 721.796C1577.61 721.796 1577.15 721.796 1576.69 721.796C1576.24 721.796 1575.78 721.796 1575.32 721.796C1574.86 721.796 1574.4 721.796 1573.94 721.796C1573.48 721.796 1573.02 721.796 1572.56 721.796C1572.1 721.796 1571.64 721.796 1571.17 721.796C1570.71 721.796 1570.25 721.796 1569.78 721.796C1569.32 721.796 1568.86 721.796 1568.39 721.796C1567.93 721.796 1567.46 721.796 1566.99 721.796C1566.53 721.796 1566.06 721.796 1565.59 721.796C1565.12 721.796 1564.66 721.796 1564.19 721.796C1563.72 721.796 1563.25 721.796 1562.78 721.796C1562.31 721.796 1561.83 721.796 1561.36 721.796C1560.89 721.796 1560.42 721.796 1559.95 721.796C1559.47 721.796 1559 721.796 1558.52 721.796C1558.05 721.796 1557.58 721.796 1557.1 721.796C1556.62 721.796 1556.15 721.796 1555.67 721.796C1555.19 721.796 1554.72 721.796 1554.24 721.796C1553.76 721.796 1553.28 721.796 1552.8 721.796C1552.32 721.796 1551.84 721.796 1551.36 721.796C1550.88 721.796 1550.4 721.796 1549.91 721.796C1549.43 721.796 1548.95 721.796 1548.47 721.796C1547.98 721.796 1547.5 721.796 1547.01 721.796C1546.53 721.796 1546.04 721.796 1545.56 721.796C1545.07 721.796 1544.58 721.796 1544.1 721.796C1543.61 721.796 1543.12 721.796 1542.63 721.796C1542.14 721.796 1541.65 721.796 1541.16 721.796C1540.67 721.796 1540.18 721.796 1539.69 721.796C1539.2 721.796 1538.71 721.796 1538.21 721.796C1537.72 721.796 1537.23 721.796 1536.73 721.796C1536.24 721.796 1535.74 721.796 1535.25 721.796C1534.75 721.796 1534.26 721.796 1533.76 721.796C1533.26 721.796 1532.76 721.796 1532.27 721.796C1531.77 721.796 1531.27 721.796 1530.77 721.796C1530.27 721.796 1529.77 721.796 1529.27 721.796C1528.77 721.796 1528.27 721.796 1527.76 721.796C1527.26 721.796 1526.76 721.796 1526.26 721.796C1525.75 721.796 1525.25 721.796 1524.74 721.796C1524.24 721.796 1523.73 721.796 1523.23 721.796C1522.72 721.796 1522.21 721.796 1521.71 721.796C1521.2 721.796 1520.69 721.796 1520.18 721.796C1519.67 721.796 1519.16 721.796 1518.65 721.796C1518.14 721.796 1517.63 721.796 1517.12 721.796C1516.61 721.796 1516.1 721.796 1515.58 721.796C1515.07 721.796 1514.56 721.796 1514.04 721.796C1513.53 721.796 1513.02 721.796 1512.5 721.796C1511.98 721.796 1511.47 721.796 1510.95 721.796C1510.43 721.796 1509.92 721.796 1509.4 721.796C1508.88 721.796 1508.36 721.796 1507.84 721.796C1507.32 721.796 1506.8 721.796 1506.28 721.796C1505.76 721.796 1505.24 721.796 1504.72 721.796C1504.19 721.796 1503.67 721.796 1503.15 721.796C1502.62 721.796 1502.1 721.796 1501.57 721.796C1501.05 721.796 1500.52 721.796 1500 721.796C1499.47 721.796 1498.94 721.796 1498.42 721.796C1497.89 721.796 1497.36 721.796 1496.83 721.796C1496.3 721.796 1495.77 721.796 1495.24 721.796C1494.71 721.796 1494.18 721.796 1493.65 721.796C1493.12 721.796 1492.59 721.796 1492.05 721.796C1491.52 721.796 1490.99 721.796 1490.45 721.796C1489.92 721.796 1489.38 721.796 1488.85 721.796C1488.31 721.796 1487.77 721.796 1487.24 721.796C1486.7 721.796 1486.16 721.796 1485.62 721.796C1485.09 721.796 1484.55 721.796 1484.01 721.796C1483.47 721.796 1482.93 721.796 1482.39 721.796C1481.84 721.796 1481.3 721.796 1480.76 721.796C1480.22 721.796 1479.67 721.796 1479.13 721.796C1478.59 721.796 1478.04 721.796 1477.5 721.796C1476.95 721.796 1476.41 721.796 1475.86 721.796C1475.31 721.796 1474.77 721.796 1474.22 721.796C1473.67 721.796 1473.12 721.796 1472.57 721.796C1472.02 721.796 1471.47 721.796 1470.92 721.796C1470.37 721.796 1469.82 721.796 1469.27 721.796C1468.72 721.796 1468.16 721.796 1467.61 721.796C1467.06 721.796 1466.5 721.796 1465.95 721.796C1465.39 721.796 1464.84 721.796 1464.28 721.796C1463.72 721.796 1463.17 721.796 1462.61 721.796C1462.05 721.796 1461.49 721.796 1460.94 721.796C1460.38 721.796 1459.82 721.796 1459.26 721.796C1458.7 721.796 1458.14 721.796 1457.57 721.796C1457.01 721.796 1456.45 721.796 1455.89 721.796C1455.32 721.796 1454.76 721.796 1454.2 721.796C1453.63 721.796 1453.07 721.796 1452.5 721.796C1451.94 721.796 1451.37 721.796 1450.8 721.796C1450.23 721.796 1449.67 721.796 1449.1 721.796C1448.53 721.796 1447.96 721.796 1447.39 721.796C1446.82 721.796 1446.25 721.796 1445.68 721.796C1445.11 721.796 1444.54 721.796 1443.96 721.796C1443.39 721.796 1442.82 721.796 1442.24 721.796C1441.67 721.796 1441.09 721.796 1440.52 721.796C1439.94 721.796 1439.37 721.796 1438.79 721.796C1438.21 721.796 1437.64 721.796 1437.06 721.796C1436.48 721.796 1435.9 721.796 1435.32 721.796C1434.74 721.796 1434.16 721.796 1433.58 721.796C1433 721.796 1432.42 721.796 1431.84 721.796C1431.25 721.796 1430.67 721.796 1430.09 721.796C1429.5 721.796 1428.92 721.796 1428.33 721.796C1427.75 721.796 1427.16 721.796 1426.58 721.796C1425.99 721.796 1425.4 721.796 1424.82 721.796C1424.23 721.796 1423.64 721.796 1423.05 721.796C1422.46 721.796 1421.87 721.796 1421.28 721.796C1420.69 721.796 1420.1 721.796 1419.51 721.796C1418.91 721.796 1418.32 721.796 1417.73 721.796C1417.14 721.796 1416.54 721.796 1415.95 721.796C1415.35 721.796 1414.76 721.796 1414.16 721.796V805.796Z" fill="white"/>
</svg>
